<?xml version="1.0" encoding="UTF-8"?>
<svg width="24px" height="24px" viewBox="0 0 24 24" version="1.1" xmlns="http://www.w3.org/2000/svg" xmlns:xlink="http://www.w3.org/1999/xlink">
    <!-- Generator: Sketch 61.2 (89653) - https://sketch.com -->
    <title>call-icon-mobile</title>
    <desc>Created with Sketch.</desc>
    <g id="final" stroke="none" stroke-width="1" fill="none" fill-rule="evenodd">
        <g id="01.Landing-page-final" transform="translate(-330.000000, -13.000000)" fill="#DC3737" fill-rule="nonzero">
            <path d="M347.620431,14.5798 C345.159118,17.4523138 344.191008,19.5201485 344.916518,20.9647412 C345.629114,22.3836208 345.592916,23.4053855 345.000484,24.1478902 L344.949337,24.2101458 L344.821497,24.3555855 C344.290437,24.9398871 343.074799,26.0844405 341.204418,27.7563576 L340.452,28.424 L340.495236,28.3997267 C339.895313,28.7846061 339.343074,28.8142122 338.732189,28.4850411 L338.578185,28.3952718 C337.047656,27.4371679 334.786588,27.8189576 333.527683,28.9284526 L333.249015,29.1705321 C332.992478,29.3907625 332.675211,29.6571874 332.297613,29.9694362 L331.578349,30.5601241 C330.634385,31.3307353 330.310361,32.6316546 330.782862,33.755645 C331.929491,36.4832606 334.061019,37.376521 336.860231,36.3112733 C342.951445,33.9932457 352.883535,24.5152869 353.729092,18.2856546 C353.886434,16.4561035 352.996392,15.0204153 351.179538,14.0349262 L350.949019,13.914821 C349.866273,13.3736009 348.577684,13.5960587 347.747591,14.4412022 L347.620431,14.5798 Z M350.267469,15.2509862 L350.475675,15.3594686 C351.785175,16.0698861 352.337775,16.9612597 352.238633,18.1208934 C351.483834,23.6749982 341.956113,32.767078 336.326728,34.9093554 C334.278275,35.6888996 332.996987,35.1519495 332.165649,33.1743521 C331.950878,32.6634526 332.09816,32.0721317 332.527476,31.7216567 L333.480137,30.9374841 C333.913005,30.5774998 334.259169,30.2831861 334.51946,30.0537874 C335.314428,29.3531685 336.863565,29.0915909 337.782276,29.6667 C338.944673,30.394355 340.164043,30.394355 341.305203,29.6622452 L341.397625,29.5923125 L342.972663,28.1843774 C344.711082,26.6138054 345.767915,25.5911151 346.172998,25.0834181 C347.158087,23.8487891 347.216429,22.2019668 346.256964,20.2915365 C345.917642,19.6158982 346.685009,17.9768386 348.759481,15.5557947 C349.132679,15.1202484 349.754407,14.9945789 350.267469,15.2509862 Z" id="call-icon-mobile" transform="translate(342.157333, 25.184448) scale(-1, 1) translate(-342.157333, -25.184448) "></path>
        </g>
    </g>
</svg>