<?xml version="1.0" encoding="UTF-8"?>
<svg width="23px" height="27px" viewBox="0 0 23 27" version="1.1" xmlns="http://www.w3.org/2000/svg" xmlns:xlink="http://www.w3.org/1999/xlink">
    <!-- Generator: Sketch 61.2 (89653) - https://sketch.com -->
    <title>edit-template</title>
    <desc>Created with Sketch.</desc>
    <g id="final" stroke="none" stroke-width="1" fill="none" fill-rule="evenodd">
        <g id="09.create-ad-2" transform="translate(-13.000000, -153.000000)" fill-rule="nonzero">
            <g id="edit-template" transform="translate(13.000000, 153.000000)">
                <path d="M16.2318886,0.621128921 L16.231,0.632128921 L16.2383182,0.62510393 L22.5146868,6.16384759 L22.5,6.17912892 L22.5,24.1211289 C22.5,25.4466123 21.4684641,26.5311676 20.1643757,26.6158112 L20,26.6211289 L3,26.6211289 C1.61928813,26.6211289 0.5,25.5018408 0.5,24.1211289 L0.5,24.1211289 L0.5,3.12112892 C0.5,1.74041705 1.61928813,0.621128921 3,0.621128921 L3,0.621128921 L16.2318886,0.621128921 Z M15.231,1.621 L3,1.621 C2.17157288,1.621 1.5,2.2927018 1.5,3.12112892 L1.5,3.12112892 L1.5,24.1211289 C1.5,24.949556 2.17157288,25.6211289 3,25.6211289 L3,25.6211289 L20,25.6211289 C20.8284271,25.6211289 21.5,24.949556 21.5,24.1211289 L21.5,24.1211289 L21.5,7.151 L16.7318886,7.15192167 C15.9521925,7.15192167 15.3114399,6.55703359 15.2387552,5.79638168 L15.2387552,5.79638168 L15.2318886,5.65192167 L15.231,1.621 Z M20.989,6.15112892 L16.231,1.95212892 L16.2318886,5.65192167 C16.2318886,5.89738156 16.4087638,6.10153004 16.642013,6.143866 L16.7318886,6.15192167 L20.989,6.15112892 Z" id="Combined-Shape" fill="#000000"></path>
                <polygon id="Path-161" fill="#EB4C4C" points="17.8030862 10.0605505 17.8030862 11.0605505 5.23462515 11.0605505 5.23462515 10.0605505"></polygon>
            </g>
        </g>
    </g>
</svg>