<?xml version="1.0" encoding="UTF-8"?>
<svg width="51px" height="45px" viewBox="0 0 51 45" version="1.1" xmlns="http://www.w3.org/2000/svg" xmlns:xlink="http://www.w3.org/1999/xlink">
    <!-- Generator: Sketch 61.2 (89653) - https://sketch.com -->
    <title>business</title>
    <desc>Created with Sketch.</desc>
    <g id="final-web" stroke="none" stroke-width="1" fill="none" fill-rule="evenodd">
        <g id="01.main-page-final-new-copy" transform="translate(-65.000000, -1208.000000)">
            <g id="Group-6-Copy-4" transform="translate(40.000000, 1181.000000)">
                <g id="business" transform="translate(25.000000, 27.000000)">
                    <path d="M50,12.8863786 L50,40 C50,42.209139 48.209139,44 46,44 L7.24093011,44 C6.13636061,44 5.24093011,43.1045695 5.24093011,42 C5.24093011,41.3540978 5.55286147,40.7479561 6.07845372,40.3725331 L46.8375236,11.2589117 C47.7363488,10.6168937 48.985449,10.8250771 49.6274669,11.7239023 C49.8697537,12.0631038 50,12.4695327 50,12.8863786 Z" id="Rectangle" fill="#E0E0E0"></path>
                    <path d="M46,8.25 L5,8.25 C2.37664744,8.25 0.25,10.3766474 0.25,13 L0.25,40 C0.25,42.6233526 2.37664744,44.75 5,44.75 L46,44.75 C48.6233526,44.75 50.75,42.6233526 50.75,40 L50.75,13 C50.75,10.3766474 48.6233526,8.25 46,8.25 Z M5,9.75 L46,9.75 C47.7949254,9.75 49.25,11.2050746 49.25,13 L49.25,40 C49.25,41.7949254 47.7949254,43.25 46,43.25 L5,43.25 C3.20507456,43.25 1.75,41.7949254 1.75,40 L1.75,13 C1.75,11.2050746 3.20507456,9.75 5,9.75 Z" id="Rectangle" fill="#000000" fill-rule="nonzero"></path>
                    <path d="M14.5,0 L19.5,0 L19.5,4 L32.5,4 L32.5,0 L37.5,0 L37.5,4 C37.5,6.6887547 35.3776933,8.88181811 32.7168896,8.99538049 L32.5,9 L19.5,9 C16.8112453,9 14.6181819,6.87769329 14.5046195,4.21688962 L14.5,4 L14.5,0 Z" id="Rectangle" fill="#DC3737" fill-rule="nonzero" transform="translate(26.000000, 4.500000) scale(1, -1) translate(-26.000000, -4.500000) "></path>
                </g>
            </g>
        </g>
    </g>
</svg>