<?xml version="1.0" encoding="UTF-8"?>
<svg width="50px" height="38px" viewBox="0 0 50 38" version="1.1" xmlns="http://www.w3.org/2000/svg" xmlns:xlink="http://www.w3.org/1999/xlink">
    <!-- Generator: Sketch 61.2 (89653) - https://sketch.com -->
    <title>Group 2</title>
    <desc>Created with Sketch.</desc>
    <g id="final-web" stroke="none" stroke-width="1" fill="none" fill-rule="evenodd">
        <g id="01.main-page-final-new-copy" transform="translate(-575.000000, -1598.000000)">
            <g id="Group-3" transform="translate(575.000000, 1595.000000)">
                <g id="Group-2" transform="translate(25.000000, 22.500000) scale(-1, 1) translate(-25.000000, -22.500000) translate(0.000000, 4.000000)">
                    <path d="M26.5306122,35.7142857 L26.5306122,0 C21.7687075,0.260360982 19.3877551,3.98191381 19.3877551,11.1646585 C19.3877551,18.3474032 19.3877551,21.4285714 19.3877551,20.4081633 L6.12244898,20.7959184 L6.12244898,36.2244898 L26.5306122,35.7142857 Z" id="Path-24" fill="#E0E0E0"></path>
                    <path d="M38,14.5918367 C41.9448911,14.5918367 45.1428571,17.7898028 45.1428571,21.7346939 L45.1428571,36.5918367 L45.1428571,36.5918367 L38,36.5918367 L38,14.5918367 Z" id="Rectangle" fill="#DC3737" transform="translate(41.571429, 25.591837) scale(-1, 1) translate(-41.571429, -25.591837) "></path>
                    <polygon id="Path-53" fill="#000000" fill-rule="nonzero" points="50 35.4744898 50 36.9744898 0 36.9744898 0 35.4744898"></polygon>
                    <polygon id="Path-54" fill="#000000" fill-rule="nonzero" points="20.1377551 19.6581633 20.1377551 28.0612245 18.6377551 28.0612245 18.637 21.158 6.872 21.158 6.87244898 35.7142857 5.37244898 35.7142857 5.37244898 19.6581633"></polygon>
                    <path d="M26.5306122,-0.75 C30.8074696,-0.75 34.2898264,2.65166137 34.4197135,6.89701504 L34.4234694,7.14285714 L34.4234694,35.7142857 L32.9234694,35.7142857 L32.9234694,7.14285714 C32.9234694,3.61217964 30.0612898,0.75 26.5306122,0.75 C23.0766886,0.75 20.2625136,3.48908968 20.1417905,6.91356588 L20.1377551,7.14285714 L20.1377551,21.9387755 L18.6377551,21.9387755 L18.6377551,7.14285714 C18.6377551,2.78375251 22.1715076,-0.75 26.5306122,-0.75 Z" id="Path-56" fill="#000000" fill-rule="nonzero"></path>
                    <polygon id="Path-62" fill="#000000" fill-rule="nonzero" points="45.6479592 2.96692299 45.6479592 35.7142857 44.1479592 35.7142857 44.147 5.196 33.956038 9.34169538 33.3909008 7.95222786"></polygon>
                    <polygon id="Path-63" fill="#F87E76" fill-rule="nonzero" points="12.244898 23.4795918 12.244898 24.4795918 10.2040816 24.4795918 10.2040816 23.4795918"></polygon>
                    <polygon id="Path-63" fill="#F87E76" fill-rule="nonzero" points="12.244898 26.5408163 12.244898 27.5408163 10.2040816 27.5408163 10.2040816 26.5408163"></polygon>
                </g>
            </g>
        </g>
    </g>
</svg>