<?xml version="1.0" encoding="UTF-8"?>
<svg width="44px" height="45px" viewBox="0 0 44 45" version="1.1" xmlns="http://www.w3.org/2000/svg" xmlns:xlink="http://www.w3.org/1999/xlink">
    <!-- Generator: Sketch 61.2 (89653) - https://sketch.com -->
    <title>daily-readers</title>
    <desc>Created with Sketch.</desc>
    <g id="final-web" stroke="none" stroke-width="1" fill="none" fill-rule="evenodd">
        <g id="01.main-page-final-new-copy" transform="translate(-1001.000000, -1597.000000)">
            <g id="Group-8" transform="translate(1001.000000, 1595.000000)">
                <g id="daily-readers" transform="translate(0.000000, 2.000000)">
                    <path d="M22.0602527,43.6740832 L22.0602527,1 C17.2893217,1.87187321 14.9038562,4.28373218 14.9038562,8.23557692 C15.1714026,11.1332131 16.3641353,13.1091355 18.4820545,14.163344 C13.6618022,16.6001284 10.4290934,18.8198772 8.78392818,20.8225904 C8.83650471,20.6797958 7.18690858,20.1001572 3.8351398,19.0836747 L3.8351398,24.9807692 C1.9450466,25.1256192 1,26.2281833 1,28.2884615 C1,30.3487398 1.88603005,31.4513039 3.65809015,31.5961538 L3.8351398,37.6755888 L22.0602527,43.6740832 Z" id="Path-19" fill="#E0E0E0"></path>
                    <g id="Group-5">
                        <path d="M8.24602026,20.299948 C17.0719363,11.2162413 26.1555409,11.1196061 35.130495,20.0056402 L35.4199715,20.2954022 L34.3530645,21.3497785 C25.9669203,12.8639697 17.8376927,12.7696829 9.59956748,21.0625223 L9.32183611,21.3452328 L8.24602026,20.299948 Z" id="Path-65" fill="#000000" fill-rule="nonzero"></path>
                        <path d="M40.6902969,38.2150561 L40.6902969,18.0579198 L22.057,23.987 L3.0851398,18.0637978 L3.0851398,38.2183177 L22.0625132,44.4644062 L40.6902969,38.2150561 Z M4.585,37.133 L4.585,20.103 L22.0624078,25.5604184 L39.19,20.109 L39.19,37.135 L22.058,42.883 L4.585,37.133 Z" id="Path-66" fill="#000000" fill-rule="nonzero"></path>
                        <polygon id="Path-67" fill="#000000" fill-rule="nonzero" points="22.8102527 35.3573345 22.8102527 43.6740832 21.3102527 43.6740832 21.3102527 35.3573345"></polygon>
                        <ellipse id="Oval" fill="#FFFFFF" cx="22.0602527" cy="8.23557692" rx="7.15639656" ry="7.23557692"></ellipse>
                        <path d="M22.0602527,0.25 C17.6918119,0.25 14.1538562,3.82710067 14.1538562,8.23557692 C14.1538562,12.6440532 17.6918119,16.2211538 22.0602527,16.2211538 C26.4286936,16.2211538 29.9666493,12.6440532 29.9666493,8.23557692 C29.9666493,3.82710067 26.4286936,0.25 22.0602527,0.25 Z M22.0602527,1.75 C25.5965493,1.75 28.4666493,4.6518556 28.4666493,8.23557692 C28.4666493,11.8192982 25.5965493,14.7211538 22.0602527,14.7211538 C18.5239562,14.7211538 15.6538562,11.8192982 15.6538562,8.23557692 C15.6538562,4.6518556 18.5239562,1.75 22.0602527,1.75 Z" id="Oval" fill="#000000" fill-rule="nonzero"></path>
                        <rect id="Rectangle" fill="#FFFFFF" x="36.9864513" y="24.9807692" width="5.3161803" height="6.61538462" rx="2.65809015"></rect>
                        <path d="M39.6445414,24.2307692 C37.7623052,24.2307692 36.2364513,25.7566232 36.2364513,27.6388594 L36.2364513,28.9380637 C36.2364513,30.8202999 37.7623052,32.3461538 39.6445414,32.3461538 C41.5267776,32.3461538 43.0526316,30.8202999 43.0526316,28.9380637 L43.0526316,27.6388594 C43.0526316,25.7566232 41.5267776,24.2307692 39.6445414,24.2307692 Z M39.6445414,25.7307692 C40.6983505,25.7307692 41.5526316,26.5850503 41.5526316,27.6388594 L41.5526316,28.9380637 C41.5526316,29.9918728 40.6983505,30.8461538 39.6445414,30.8461538 C38.5907323,30.8461538 37.7364513,29.9918728 37.7364513,28.9380637 L37.7364513,27.6388594 C37.7364513,26.5850503 38.5907323,25.7307692 39.6445414,25.7307692 Z" id="Rectangle" fill="#000000" fill-rule="nonzero"></path>
                        <rect id="Rectangle-Copy" fill="#FFFFFF" x="1" y="24.9807692" width="5.3161803" height="6.61538462" rx="2.65809015"></rect>
                        <path d="M3.65809015,24.2307692 C1.77585393,24.2307692 0.25,25.7566232 0.25,27.6388594 L0.25,28.9380637 C0.25,30.8202999 1.77585393,32.3461538 3.65809015,32.3461538 C5.54032637,32.3461538 7.0661803,30.8202999 7.0661803,28.9380637 L7.0661803,27.6388594 C7.0661803,25.7566232 5.54032637,24.2307692 3.65809015,24.2307692 Z M3.65809015,25.7307692 C4.71189924,25.7307692 5.5661803,26.5850503 5.5661803,27.6388594 L5.5661803,28.9380637 C5.5661803,29.9918728 4.71189924,30.8461538 3.65809015,30.8461538 C2.60428106,30.8461538 1.75,29.9918728 1.75,28.9380637 L1.75,27.6388594 C1.75,26.5850503 2.60428106,25.7307692 3.65809015,25.7307692 Z" id="Rectangle-Copy" fill="#000000" fill-rule="nonzero"></path>
                    </g>
                    <polygon id="Path-68" fill="#DC3737" fill-rule="nonzero" points="29.8658233 25.7281893 30.1545401 26.6856038 25.2375601 28.1683624 24.9488434 27.2109479"></polygon>
                    <polygon id="Path-69" fill="#DC3737" points="25.5848997 31.3231199 25.5848997 39.5517241 36.4022556 35.445454 36.4022556 27.6896552"></polygon>
                </g>
            </g>
        </g>
    </g>
</svg>