<?xml version="1.0" encoding="UTF-8"?>
<svg width="58px" height="42px" viewBox="0 0 58 42" version="1.1" xmlns="http://www.w3.org/2000/svg" xmlns:xlink="http://www.w3.org/1999/xlink">
    <!-- Generator: Sketch 61.2 (89653) - https://sketch.com -->
    <title>education</title>
    <desc>Created with Sketch.</desc>
    <g id="final-web" stroke="none" stroke-width="1" fill="none" fill-rule="evenodd">
        <g id="01.main-page-final-new-copy" transform="translate(-388.000000, -1208.000000)">
            <g id="Group-6-Copy-6" transform="translate(367.000000, 1181.000000)">
                <g id="education" transform="translate(21.000000, 27.000000)">
                    <path d="M33.2096774,23.5423435 L29,41.0285363 L57.0678189,41.1612903 L57.0678189,6.73521509 L52.3870968,5.61290323 L52.0167462,1.30418846 C47.7317168,1.14053571 44.2638164,1.37163809 41.613045,1.99749559 C38.9622736,2.62335309 36.161151,9.80496907 33.2096774,23.5423435 Z" id="Path-14" fill="#E0E0E0"></path>
                    <path d="M29.2276928,5.83737283 C38.4832463,1.13524546 46.1212622,-0.617933403 52.1573563,0.616809783 L52.1573563,0.616809783 L52.7183591,0.731568484 L52.7183591,36.4780295 L51.4700396,36.4752326 C43.5418506,36.4871445 38.0987207,37.3400381 35.1855322,38.99123 L35.1855322,38.99123 L34.4936021,37.7704616 L34.7140207,37.6491105 C37.8533417,35.9700393 43.238271,35.1241178 50.9078447,35.0742225 L50.9078447,35.0742225 L51.3151506,35.0722258 L51.3151506,1.88780645 L51.2012125,1.86821087 C45.6264259,0.968049134 38.5104974,2.69592938 29.8672613,7.08637913 L29.8672613,7.08637913 L29.7157635,7.16393548 L29.7156625,32.2555759 L28.3124367,32.2555759 L28.3124194,7.16393548 L28.1608379,7.08637913 C19.5176017,2.69592938 12.4016732,0.968049134 6.8268866,1.86821087 L6.71209677,1.88780645 L6.71209677,35.0722258 L7.12025441,35.0742225 C14.7898281,35.1241178 20.1747574,35.9700393 23.3140784,37.6491105 L23.5344971,37.7704616 L22.842567,38.99123 C19.9293784,37.3400381 14.4862485,36.4871445 6.55805951,36.4752326 L5.30974005,36.4780295 L5.30887097,6.75677691 L1.63709677,6.757 L1.63709677,40.3268387 L56.3657097,40.3268387 L56.3657097,6.757 L53.1454009,6.75776365 L53.1454009,5.35453785 L57.7694318,5.35453785 L57.7694318,41.7301492 L0.233870968,41.7301492 L0.233870968,5.35453785 L5.30887097,5.35377691 L5.30974005,0.731568484 L5.87074279,0.616809783 C11.9068369,-0.617933403 19.5448528,1.13524546 28.8004064,5.83737283 L29.013871,5.94677691 Z" id="Combined-Shape" fill="#000000" fill-rule="nonzero"></path>
                    <path d="M9.82258065,8.96449141 L9.82258065,14.2965689 C18.5879232,14.6848387 24.1033011,15.4301995 26.3687143,16.5326514 C26.3844367,16.5843289 26.3844367,15.049927 26.3687143,11.9294458 C22.9583023,10.7602889 20.2977519,10.0045192 18.387063,9.66213675 C16.476374,9.31975432 13.6215466,9.08720587 9.82258065,8.96449141 Z" id="Path" fill="#DC3737"></path>
                </g>
            </g>
        </g>
    </g>
</svg>