<?xml version="1.0" encoding="UTF-8"?>
<svg width="52px" height="53px" viewBox="0 0 52 53" version="1.1" xmlns="http://www.w3.org/2000/svg" xmlns:xlink="http://www.w3.org/1999/xlink">
    <!-- Generator: Sketch 61.2 (89653) - https://sketch.com -->
    <title>Group 16 Copy 2</title>
    <desc>Created with Sketch.</desc>
    <g id="final-web" stroke="none" stroke-width="1" fill="none" fill-rule="evenodd">
        <g id="01.main-page-final-new-copy" transform="translate(-65.000000, -965.000000)">
            <g id="Group-6" transform="translate(40.000000, 941.000000)">
                <g id="Group-16-Copy-2" transform="translate(20.000000, 24.000000)">
                    <path d="M23.5,12 C29.8561716,12 35.1863691,16.3927172 36.620415,22.307974 C37.5473811,22.1062895 38.5112779,22 39.5,22 C46.9558441,22 53,28.0441559 53,35.5 C53,42.9558441 46.9558441,49 39.5,49 C33.1438284,49 27.8136309,44.6072828 26.379585,38.692026 C25.4526189,38.8937105 24.4887221,39 23.5,39 C16.0441559,39 10,32.9558441 10,25.5 C10,18.0441559 16.0441559,12 23.5,12 Z" id="Combined-Shape" fill="#E0E0E0"></path>
                    <path d="M23.5,7.03209084 C33.5791967,7.03209084 41.75,15.2028942 41.75,25.2820908 C41.75,35.2492965 33.7597613,43.3502818 23.8352578,43.5290732 L23.5,43.5320908 L23.5,42.0320908 C32.7507696,42.0320908 40.25,34.5328604 40.25,25.2820908 C40.25,16.0313213 32.7507696,8.53209084 23.5,8.53209084 C14.2492304,8.53209084 6.75,16.0313213 6.75,25.2820908 C6.75,29.0388392 7.98930693,32.6050516 10.2380901,35.5150102 C11.3015251,36.8911108 12.5729251,38.0953649 14.003198,39.0816364 L14.3971745,39.3451804 L13.5808643,40.603607 C11.8475123,39.4792245 10.3146412,38.0671414 9.05119787,36.4322271 C6.60117025,33.2618552 5.25,29.3737465 5.25,25.2820908 C5.25,15.2028942 13.4208033,7.03209084 23.5,7.03209084 Z" id="Oval" fill="#000000" fill-rule="nonzero" transform="translate(23.500000, 25.282091) rotate(161.000000) translate(-23.500000, -25.282091) "></path>
                    <polygon id="Path-77" fill="#DC3737" points="23.5 11.013951 30.4880721 4.72538213 26.9940361 6.11397099e-16 17.7614679 0 15.2969705 4.72538213 21.81968 11.013951"></polygon>
                    <path d="M39.5,18.0320908 C45.0919422,18.0320908 50.0624215,20.6928896 53.2144238,24.817473 C52.7873581,24.9229406 52.2522658,25.0545949 51.6105063,25.2124935 C48.7216843,21.7413498 44.3688422,19.5320908 39.5,19.5320908 C30.8015152,19.5320908 23.75,26.583606 23.75,35.2820908 C23.75,43.9805756 30.8015152,51.0320908 39.5,51.0320908 C48.1984848,51.0320908 55.25,43.9805756 55.25,35.2820908 C55.25,33.4514796 54.9376889,31.6938126 54.3634418,30.0594649 L55.7915214,29.5978133 C56.4124808,31.3776879 56.75,33.2904735 56.75,35.2820908 C56.75,44.8090028 49.0269119,52.5320908 39.5,52.5320908 C29.9730881,52.5320908 22.25,44.8090028 22.25,35.2820908 C22.25,25.7551789 29.9730881,18.0320908 39.5,18.0320908 Z" id="Combined-Shape" fill="#000000" fill-rule="nonzero"></path>
                    <path d="M53,24.5 C51.0670034,24.5 49.5,26.0670034 49.5,28 C49.5,29.9329966 51.0670034,31.5 53,31.5 C54.9329966,31.5 56.5,29.9329966 56.5,28 C56.5,26.0670034 54.9329966,24.5 53,24.5 Z M53,25.5 C54.3807119,25.5 55.5,26.6192881 55.5,28 C55.5,29.3807119 54.3807119,30.5 53,30.5 C51.6192881,30.5 50.5,29.3807119 50.5,28 C50.5,26.6192881 51.6192881,25.5 53,25.5 Z" id="Oval" fill="#000000" fill-rule="nonzero"></path>
                </g>
            </g>
        </g>
    </g>
</svg>