<?xml version="1.0" encoding="UTF-8"?>
<svg width="54px" height="41px" viewBox="0 0 54 41" version="1.1" xmlns="http://www.w3.org/2000/svg" xmlns:xlink="http://www.w3.org/1999/xlink">
    <!-- Generator: Sketch 61.2 (89653) - https://sketch.com -->
    <title>name-change</title>
    <desc>Created with Sketch.</desc>
    <g id="final-web" stroke="none" stroke-width="1" fill="none" fill-rule="evenodd">
        <g id="01.main-page-final-new-copy" transform="translate(-1045.000000, -1090.000000)">
            <g id="Group-7-Copy-2" transform="translate(1021.000000, 1061.000000)">
                <g id="name-change" transform="translate(24.000000, 29.000000)">
                    <path d="M53,8.88637865 L53,36 C53,38.209139 51.209139,40 49,40 L10.2409301,40 C9.13636061,40 8.24093011,39.1045695 8.24093011,38 C8.24093011,37.3540978 8.55286147,36.7479561 9.07845372,36.3725331 L49.8375236,7.25891171 C50.7363488,6.61689372 51.985449,6.82507709 52.6274669,7.72390226 C52.8697537,8.06310376 53,8.46953269 53,8.88637865 Z" id="Rectangle" fill="#E0E0E0"></path>
                    <path d="M49,0.25 L5,0.25 C2.37664744,0.25 0.25,2.37664744 0.25,5 L0.25,36 C0.25,38.6233526 2.37664744,40.75 5,40.75 L49,40.75 C51.6233526,40.75 53.75,38.6233526 53.75,36 L53.75,5 C53.75,2.37664744 51.6233526,0.25 49,0.25 Z M5,1.75 L49,1.75 C50.7949254,1.75 52.25,3.20507456 52.25,5 L52.25,36 C52.25,37.7949254 50.7949254,39.25 49,39.25 L5,39.25 C3.20507456,39.25 1.75,37.7949254 1.75,36 L1.75,5 C1.75,3.20507456 3.20507456,1.75 5,1.75 Z" id="Rectangle" fill="#000000" fill-rule="nonzero"></path>
                    <path d="M14.4357035,11.25 C11.2600661,11.25 8.68570346,13.8243627 8.68570346,17 C8.68570346,20.1756373 11.2600661,22.75 14.4357035,22.75 C17.6113408,22.75 20.1857035,20.1756373 20.1857035,17 C20.1857035,13.8243627 17.6113408,11.25 14.4357035,11.25 Z M14.4357035,12.75 C16.7829136,12.75 18.6857035,14.6527898 18.6857035,17 C18.6857035,19.3472102 16.7829136,21.25 14.4357035,21.25 C12.0884933,21.25 10.1857035,19.3472102 10.1857035,17 C10.1857035,14.6527898 12.0884933,12.75 14.4357035,12.75 Z" id="Oval" fill="#000000" fill-rule="nonzero"></path>
                    <path d="M15.868967,22.25 C20.0668621,22.25 23.4852137,25.5876228 23.6151362,29.753983 L23.618967,30 L23.618967,30.9704892 L22.118967,30.9704892 L22.118967,30 C22.118967,26.6249265 19.4437302,23.8746881 16.0980938,23.754122 L15.868967,23.75 L13.4357035,23.75 C10.06063,23.75 7.31039155,26.4252368 7.18982543,29.7708731 L7.18570346,30 L7.18570346,30.9704892 L5.68570346,30.9704892 L5.68570346,30 C5.68570346,25.8021049 9.02332627,22.3837533 13.1896865,22.2538307 L13.4357035,22.25 L15.868967,22.25 Z" id="Path-105" fill="#000000" fill-rule="nonzero"></path>
                    <path d="M46.868967,18 C47.9735365,18 48.868967,18.8954305 48.868967,20 C48.868967,21.0543618 48.0530892,21.9181651 47.0182293,21.9945143 L46.868967,22 L30.4357035,22 C29.331134,22 28.4357035,21.1045695 28.4357035,20 C28.4357035,18.9456382 29.2515812,18.0818349 30.2864411,18.0054857 L30.4357035,18 L46.868967,18 Z" id="Path-106" fill="#DC3737" fill-rule="nonzero"></path>
                </g>
            </g>
        </g>
    </g>
</svg>