<?xml version="1.0" encoding="UTF-8"?>
<svg width="55px" height="52px" viewBox="0 0 55 52" version="1.1" xmlns="http://www.w3.org/2000/svg" xmlns:xlink="http://www.w3.org/1999/xlink">
    <!-- Generator: Sketch 61.2 (89653) - https://sketch.com -->
    <title>obituary</title>
    <desc>Created with Sketch.</desc>
    <g id="final-web" stroke="none" stroke-width="1" fill="none" fill-rule="evenodd">
        <g id="01.main-page-final-new-copy" transform="translate(-63.000000, -1085.000000)">
            <g id="Group-6-Copy-2" transform="translate(40.000000, 1061.000000)">
                <g id="obituary" transform="translate(23.000000, 24.000000)">
                    <polygon id="Rectangle" fill="#E0E0E0" points="4.02857143 0.971428571 41.0285714 0.971428571 41.0285714 47.9714286"></polygon>
                    <path d="M39.1285714,0.278571429 C40.6473545,0.278571429 41.8785714,1.50978837 41.8785714,3.02857143 L41.8785714,3.02857143 L41.8786153,26.8213285 C42.1876119,26.7116986 42.5353357,26.8170587 42.7311299,27.0818528 L42.7860894,27.1677805 L54.511131,48.5359083 L47.6863377,48.5359083 C47.2721241,48.5359083 46.9363377,48.2001219 46.9363377,47.7859083 C46.9363377,47.4062126 47.2184915,47.0924174 47.5845671,47.0427549 L47.6863377,47.0359083 L51.976,47.035 L41.878,28.6305714 L41.8785714,49 C41.8785714,50.4625318 40.7368668,51.6584043 39.2960938,51.7449812 L39.1285714,51.75 L3,51.75 C1.48121694,51.75 0.25,50.5187831 0.25,49 L0.25,49 L0.25,3.02857143 C0.25,1.50978837 1.48121694,0.278571429 3,0.278571429 L3,0.278571429 Z M39.1285714,1.77857143 L3,1.77857143 C2.30964406,1.77857143 1.75,2.33821549 1.75,3.02857143 L1.75,3.02857143 L1.75,49 C1.75,49.6903559 2.30964406,50.25 3,50.25 L3,50.25 L39.1285714,50.25 C39.8189274,50.25 40.3785714,49.6903559 40.3785714,49 L40.3785714,49 L40.3785714,3.02857143 C40.3785714,2.33821549 39.8189274,1.77857143 39.1285714,1.77857143 L39.1285714,1.77857143 Z" id="Combined-Shape" fill="#000000" fill-rule="nonzero"></path>
                    <path d="M21.0642857,17.6642857 C23.8257095,17.6642857 26.0642857,19.902862 26.0642857,22.6642857 C26.0642857,24.7570773 24.7785321,26.5495651 22.9538646,27.2949093 C27.2747209,28.0293105 30.5642857,31.7910485 30.5642857,36.3211055 L30.5642857,36.3211055 L27.5642857,36.3211055 L27.5602252,36.0953946 C27.4414566,32.7996378 24.732221,30.1642857 21.407466,30.1642857 L21.407466,30.1642857 L21.0642857,30.1642857 L20.8311516,30.1683887 C17.3492819,30.2911352 14.5642857,33.1524751 14.5642857,36.6642857 L14.5642857,36.6642857 L14.5642857,40.6642857 L11.5642857,40.6642857 L11.5642857,36.6642857 L11.5680621,36.393807 C11.6942465,31.8802553 14.9686351,28.1540117 19.2734804,27.3328234 C17.3966285,26.6138409 16.0642857,24.794656 16.0642857,22.6642857 C16.0642857,19.902862 18.302862,17.6642857 21.0642857,17.6642857 Z" id="Combined-Shape" fill="#DC3737"></path>
                </g>
            </g>
        </g>
    </g>
</svg>