<?xml version="1.0" encoding="UTF-8"?>
<svg width="45px" height="51px" viewBox="0 0 45 51" version="1.1" xmlns="http://www.w3.org/2000/svg" xmlns:xlink="http://www.w3.org/1999/xlink">
    <!-- Generator: Sketch 61.2 (89653) - https://sketch.com -->
    <title>Group 18 Copy</title>
    <desc>Created with Sketch.</desc>
    <g id="final-web" stroke="none" stroke-width="1" fill="none" fill-rule="evenodd">
        <g id="01.main-page-final-new-copy" transform="translate(-395.000000, -966.000000)">
            <g id="Group-6-Copy" transform="translate(367.000000, 941.000000)">
                <g id="Group-18-Copy" transform="translate(28.000000, 25.000000)">
                    <path d="M28.1611239,28.0419406 C36.733579,28.0419406 43.6829268,33.801003 43.6829268,42.2256571 C43.6829268,42.2256571 36.4442894,47.5621075 27.701042,49.2457768 C21.8722104,50.3682229 16.5449154,50.0799156 11.7191571,48.3808548 C11.7191571,39.9562007 19.5886689,28.0419406 28.1611239,28.0419406 Z M22.9512195,3.43902439 C27.6658454,3.43902439 31.4878049,7.26098384 31.4878049,11.9756098 C31.4878049,16.6902357 27.6658454,20.5121951 22.9512195,20.5121951 C18.2365936,20.5121951 14.4146341,16.6902357 14.4146341,11.9756098 C14.4146341,7.26098384 18.2365936,3.43902439 22.9512195,3.43902439 Z" id="Combined-Shape" fill="#E0E0E0"></path>
                    <path d="M21.1219512,0.25 C27.2610677,0.25 32.2378049,5.2267372 32.2378049,11.3658537 C32.2378049,15.709003 29.7469841,19.4703899 26.1159156,21.2994414 C36.5166913,23.0641942 44.4329268,32.0028064 44.4329268,42.7682927 L44.4329268,42.7682927 L44.4329268,43.1851748 L43.8760138,43.5283209 L43.2933344,43.8677833 C43.114817,43.9696696 42.9259293,44.0757126 42.7270267,44.1854743 L42.7270267,44.1854743 L42.1006296,44.5254778 C40.54219,45.3579784 38.8094686,46.1899682 36.946582,46.9666365 C31.606926,49.1928277 26.2853794,50.5304878 21.3252033,50.5304878 C13.7747417,50.5304878 6.8410449,48.1383624 0.546858484,43.3659236 L0.546858484,43.3659236 L0.25,43.1408367 L0.25,42.7682927 C0.25,32.5873204 7.3299454,24.0402269 16.89614,21.6485976 C12.8527589,19.9870388 10.0060976,16.0088829 10.0060976,11.3658537 C10.0060976,5.2267372 14.9828348,0.25 21.1219512,0.25 Z M22.3414634,22.4817073 C11.2012467,22.4817073 2.13098819,31.1959769 1.76169289,42.0781745 L1.76169289,42.0781745 L1.753,42.394 L1.93092286,42.5272493 C7.67876392,46.7491025 13.9475212,48.91192 20.7565345,49.0257452 L20.7565345,49.0257452 L21.3252033,49.0304878 C26.0574792,49.0304878 31.197033,47.7385747 36.3693641,45.582144 C38.1856731,44.8248946 39.8757084,44.0134012 41.3938665,43.2024185 C41.9242332,42.9191027 42.3947869,42.6563686 42.7998658,42.4210699 L42.7998658,42.4210699 L42.927,42.346 L42.9212339,42.0781745 C42.555826,31.3105263 33.6716688,22.6654058 22.6925639,22.4845964 L22.6925639,22.4845964 Z M21.1219512,1.75 C15.8112619,1.75 11.5060976,6.05516433 11.5060976,11.3658537 C11.5060976,16.676543 15.8112619,20.9817073 21.1219512,20.9817073 C26.4326406,20.9817073 30.7378049,16.676543 30.7378049,11.3658537 C30.7378049,6.05516433 26.4326406,1.75 21.1219512,1.75 Z" id="Combined-Shape" fill="#000000" fill-rule="nonzero"></path>
                    <path d="M14.9020405,28.7386232 C15.5986796,28.2903093 16.5268475,28.4916167 16.9751614,29.1882558 C17.4234753,29.884895 17.222168,30.8130628 16.5255288,31.2613768 C13.7102505,33.073116 11.6735235,36.3760097 10.4552503,41.2511826 C10.2544079,42.0548951 9.44005518,42.5436179 8.63634265,42.3427755 C7.83263012,42.1419331 7.34390733,41.3275804 7.54474973,40.5238679 C8.9338291,34.9651788 11.3729585,31.0097224 14.9020405,28.7386232 Z" id="Path-35" fill="#DC3737" fill-rule="nonzero"></path>
                </g>
            </g>
        </g>
    </g>
</svg>