<?xml version="1.0" encoding="UTF-8"?>
<svg width="57px" height="43px" viewBox="0 0 57 43" version="1.1" xmlns="http://www.w3.org/2000/svg" xmlns:xlink="http://www.w3.org/1999/xlink">
    <!-- Generator: Sketch 61.2 (89653) - https://sketch.com -->
    <title>Group 9</title>
    <desc>Created with Sketch.</desc>
    <g id="final-web" stroke="none" stroke-width="1" fill="none" fill-rule="evenodd">
        <g id="01.main-page-final-new-copy" transform="translate(-108.000000, -1601.000000)">
            <g id="Group-11" transform="translate(110.000000, 1595.000000)">
                <g id="Group-9" transform="translate(0.000000, 7.000000)">
                    <path d="M35.9679838,1 L24.7815362,41.1242917 C27.2108445,41.3942361 29.302968,40.6222504 31.0579064,38.8083345 C32.8128449,36.9944186 40.5725129,28.6177426 54.3369105,13.6783066 C51.2211806,8.74636977 48.5555859,5.51584181 46.3401263,3.98672274 C44.1246667,2.45760367 40.6672859,1.46202943 35.9679838,1 Z" id="Path-29" fill="#E0E0E0"></path>
                    <path d="M4.66477616,21.0984782 L5.7380951,22.1463267 L1.794,26.185 L1.83280732,26.1868315 C10.4272784,26.4069927 17.6433345,30.6252631 23.4288224,38.7879372 L23.675,39.139 L23.8143178,39.252373 C25.1559774,40.2972844 26.5713293,40.6071087 28.1255113,40.2034613 L28.3720716,40.1338015 L28.8097976,41.5685126 C26.6710768,42.2210298 24.6623571,41.8266985 22.86145,40.4113394 L22.6374246,40.2291035 L22.5031139,40.0813822 C16.6366472,31.586588 9.31716362,27.4765728 0.480570332,27.6853365 L0.0299442397,27.6996732 L-1.8532303,27.7749202 L4.66477616,21.0984782 Z" id="Path-25" fill="#000000" fill-rule="nonzero"></path>
                    <path d="M33.065726,-0.568470737 C41.9022598,-1.5052006 49.0071901,2.72999432 54.286512,12.0205358 C54.8439794,13.001566 54.7429885,14.2165379 54.0490265,15.0895531 L53.9204206,15.2399477 L31.0175896,40.1626687 L29.9131176,39.1477099 L52.8159608,14.2249755 C53.1834178,13.8251303 53.2506638,13.2337682 52.9823637,12.7616142 C48.0620565,4.10286605 41.6376014,0.180945783 33.6194693,0.884825575 L33.359,0.91 L33.177973,1.02057106 L32.0390707,1.75172162 L29.0469727,3.72772483 L19.6118594,10.0487136 L9.028,17.182 L9.6432542,17.3664642 C18.6143113,20.089071 25.5949357,23.6228331 30.600285,27.9959962 L30.9913407,28.3429903 C33.6479395,30.9566037 32.6028032,34.5901204 29.5124135,36.1715404 L29.3206645,36.2657719 L28.6808769,34.9090583 C31.0543722,33.7897852 31.8272442,31.2695965 29.9633019,29.4348033 C24.8858182,24.8596542 17.4964052,21.1711458 7.79183526,18.3837903 L7.07761298,18.1814459 L5.51600183,17.7450718 L23.0949466,5.89480092 C29.8567829,1.35946722 32.3450413,-0.246994577 33.0098465,-0.526119114 L33.067,-0.548 L33.065726,-0.568470737 Z" id="Path-26" fill="#000000" fill-rule="nonzero"></path>
                    <polygon id="Path-27" fill="#000000" fill-rule="nonzero" points="9.81833657 20.5928865 10.8640232 21.6683117 9.875 22.63 28.8835051 30.6827658 28.2983642 32.0639284 7.20958927 23.1294944"></polygon>
                    <path d="M20,15.5590798 C21.0586314,15.8282173 21.9403503,16.1610387 22.6451569,16.5575441 C23.3499634,16.9540495 24.2570521,17.6275637 25.3664232,18.5780867 L39.7651505,6.86949608 C38.0778173,4.79099362 36.3195912,3.84165435 34.4904722,4.02147828 C33.2949088,4.02147828 28.4647514,7.86734546 20,15.5590798 Z" id="Path-28" fill="#DC3737"></path>
                </g>
            </g>
        </g>
    </g>
</svg>