<?xml version="1.0" encoding="UTF-8"?>
<svg width="54px" height="53px" viewBox="0 0 54 53" version="1.1" xmlns="http://www.w3.org/2000/svg" xmlns:xlink="http://www.w3.org/1999/xlink">
    <!-- Generator: Sketch 61.2 (89653) - https://sketch.com -->
    <title>Group 8 Copy 7</title>
    <desc>Created with Sketch.</desc>
    <g id="final-web" stroke="none" stroke-width="1" fill="none" fill-rule="evenodd">
        <g id="01.main-page-final-new-copy" transform="translate(-717.000000, -964.000000)">
            <g id="Group-7-Copy" transform="translate(694.000000, 941.000000)">
                <g id="Group-8-Copy-7" transform="translate(23.000000, 23.000000)">
                    <polygon id="Path-2" fill="#E0E0E0" points="27.3486239 1.30275229 43.587156 19 43.587156 51.3944954 26.6174003 51.3944954"></polygon>
                    <path d="M27,39 C29.7614237,39 32,41.2385763 32,44 L32,51 L32,51 L22,51 L22,44 C22,41.2385763 24.2385763,39 27,39 Z" id="Rectangle" fill="#DC3737"></path>
                    <path d="M26.900128,0.225176692 L54.0295536,27.7487375 L52.9612721,28.8017212 L44.3369252,20.0511767 L44.337156,52.1444954 L8.15825688,52.1444954 L8.15825688,23.1506327 L9.65825688,23.1506327 L9.658,50.644 L42.837,50.644 L42.837156,19.4678899 L43.7609252,19.4671767 L26.918,2.38 L1.74474455,28.7926741 L0.65892517,27.7577846 L26.900128,0.225176692 Z M27.0733945,18.7178899 C29.9196877,18.7178899 32.2270642,21.0252664 32.2270642,23.8715596 C32.2270642,26.7178528 29.9196877,29.0252294 27.0733945,29.0252294 C24.2271013,29.0252294 21.9197248,26.7178528 21.9197248,23.8715596 C21.9197248,21.0252664 24.2271013,18.7178899 27.0733945,18.7178899 Z M27.0733945,20.2178899 C25.0555284,20.2178899 23.4197248,21.8536936 23.4197248,23.8715596 C23.4197248,25.8894257 25.0555284,27.5252294 27.0733945,27.5252294 C29.0912606,27.5252294 30.7270642,25.8894257 30.7270642,23.8715596 C30.7270642,21.8536936 29.0912606,20.2178899 27.0733945,20.2178899 Z" id="Combined-Shape" fill="#000000" fill-rule="nonzero"></path>
                </g>
            </g>
        </g>
    </g>
</svg>