<?xml version="1.0" encoding="UTF-8"?>
<svg width="49px" height="51px" viewBox="0 0 49 51" version="1.1" xmlns="http://www.w3.org/2000/svg" xmlns:xlink="http://www.w3.org/1999/xlink">
    <!-- Generator: Sketch 61.2 (89653) - https://sketch.com -->
    <title>recruitment</title>
    <desc>Created with Sketch.</desc>
    <g id="final-web" stroke="none" stroke-width="1" fill="none" fill-rule="evenodd">
        <g id="01.main-page-final-new-copy" transform="translate(-1045.000000, -965.000000)">
            <g id="Group-7" transform="translate(1021.000000, 941.000000)">
                <g id="recruitment" transform="translate(24.000000, 24.000000)">
                    <polygon id="Path-138" fill="#E0E0E0" points="47.5046296 3.33398796 48.8657407 6.8585519 48.8657407 43.9641242 46.7696869 48.3005608 44.5527344 50 10.9814815 50 33.998083 1 44.3227525 1"></polygon>
                    <path d="M42.7407407,0.319444444 L6.44444444,0.319444444 C3.06170035,0.319444444 0.319444444,3.06170035 0.319444444,6.44444444 L0.319444444,44.5555556 C0.319444444,47.9382996 3.06170035,50.6805556 6.44444444,50.6805556 L42.7407407,50.6805556 C46.1234848,50.6805556 48.8657407,47.9382996 48.8657407,44.5555556 L48.8657407,6.44444444 C48.8657407,3.06170035 46.1234848,0.319444444 42.7407407,0.319444444 Z M6.44444444,1.68055556 L42.7407407,1.68055556 C45.3717639,1.68055556 47.5046296,3.81342126 47.5046296,6.44444444 L47.5046296,44.5555556 C47.5046296,47.1865787 45.3717639,49.3194444 42.7407407,49.3194444 L6.44444444,49.3194444 C3.81342126,49.3194444 1.68055556,47.1865787 1.68055556,44.5555556 L1.68055556,6.44444444 C1.68055556,3.81342126 3.81342126,1.68055556 6.44444444,1.68055556 Z" id="Rectangle" fill="#000000" fill-rule="nonzero"></path>
                    <circle id="Oval" fill="#FFFFFF" cx="23.6851852" cy="16.1234568" r="6.04938272"></circle>
                    <path d="M36.9938272,34.8765432 C36.9938272,27.8604814 31.3061853,22.1728395 24.2901235,22.1728395 C17.2740616,22.1728395 11.5864198,27.8604814 11.5864198,34.8765432 C15.2564372,37.6995885 19.289359,39.1111111 23.6851852,39.1111111 C30.2789245,39.1111111 36.9938272,34.8765432 36.9938272,34.8765432 Z" id="Oval-Copy" fill="#FFFFFF"></path>
                    <path d="M23.6851852,9.39351852 C19.9683429,9.39351852 16.9552469,12.4066145 16.9552469,16.1234568 C16.9552469,19.8402991 19.9683429,22.8533951 23.6851852,22.8533951 C27.4020275,22.8533951 30.4151235,19.8402991 30.4151235,16.1234568 C30.4151235,12.4066145 27.4020275,9.39351852 23.6851852,9.39351852 Z M23.6851852,10.7546296 C26.6503066,10.7546296 29.0540123,13.1583354 29.0540123,16.1234568 C29.0540123,19.0885782 26.6503066,21.492284 23.6851852,21.492284 C20.7200638,21.492284 18.316358,19.0885782 18.316358,16.1234568 C18.316358,13.1583354 20.7200638,10.7546296 23.6851852,10.7546296 Z" id="Oval" fill="#000000" fill-rule="nonzero"></path>
                    <path d="M24.2901235,21.492284 C16.8982012,21.492284 10.9058642,27.4846209 10.9058642,34.8765432 L10.9058642,35.211653 L11.1714819,35.4159711 C14.9588355,38.3292735 19.1371016,39.7916667 23.6851852,39.7916667 L24.0510762,39.787553 C26.9400096,39.7229724 30.0083576,38.9186457 33.0772673,37.6206231 C34.1935895,37.1484647 35.2317906,36.6427336 36.1658556,36.1365354 L36.6301477,35.8798505 C36.7756308,35.7977261 36.911696,35.7192108 37.0379324,35.644821 L37.3568453,35.4521939 L37.6743827,35.2519477 L37.6743827,34.8765432 C37.6743827,27.4846209 31.6820457,21.492284 24.2901235,21.492284 Z M24.5699356,22.856587 C30.894862,23.0010285 36.0132346,28.0298288 36.3005498,34.3184845 L36.3063148,34.4951296 L35.9600258,34.6951308 C35.8216237,34.77325 35.6739197,34.8549968 35.5173373,34.9398535 C34.620029,35.4261322 33.6208025,35.9128779 32.5470495,36.3670312 C29.623204,37.6036976 26.7128877,38.3665984 24.0206568,38.4267819 L23.6851852,38.4305556 L23.2474643,38.4257014 C19.31939,38.3383222 15.6992674,37.0711522 12.3700719,34.6149234 L12.2718148,34.5414074 L12.2796971,34.3184845 C12.5712375,27.9373486 17.83697,22.8533951 24.2901235,22.8533951 L24.5699356,22.856587 Z" id="Oval-Copy" fill="#000000" fill-rule="nonzero"></path>
                    <path d="M22.4885286,24.8239005 L22.949087,25.8930786 L20.962963,36.7705493 C23.040101,37.4715453 25.1558517,37.4715453 27.310215,36.7705493 C27.3879778,36.7587722 26.4797622,33.1329486 24.5855681,25.8930786 L25.4878811,23.4598187 C24.2126703,22.5504308 23.0730835,22.5504308 22.0691207,23.4598187 C22.0446744,23.4481738 22.184477,23.9028677 22.4885286,24.8239005 Z" id="Path-139" fill="#DC3737"></path>
                </g>
            </g>
        </g>
    </g>
</svg>