<?xml version="1.0" encoding="UTF-8"?>
<svg width="36px" height="60px" viewBox="0 0 36 60" version="1.1" xmlns="http://www.w3.org/2000/svg" xmlns:xlink="http://www.w3.org/1999/xlink">
    <!-- Generator: Sketch 61.2 (89653) - https://sketch.com -->
    <title>remembrance</title>
    <desc>Created with Sketch.</desc>
    <g id="final-web" stroke="none" stroke-width="1" fill="none" fill-rule="evenodd">
        <g id="01.main-page-final-new-copy" transform="translate(-400.000000, -1077.000000)">
            <g id="Group-6-Copy-3" transform="translate(367.000000, 1061.000000)">
                <g id="remembrance" transform="translate(33.000000, 16.000000)">
                    <polygon id="Path-112" fill="#E0E0E0" points="5 58.2573344 18.0703022 31.6681074 18.0703022 50.4374284 35.1329775 20.7687459 35.1329775 58.2573344"></polygon>
                    <path d="M35.8203022,19.9181074 L35.8203022,59.0073344 L1,59.0073344 L0.999,58.2571074 L0.25,58.2573344 L0.25,30.9181074 L18.8203022,30.9181074 L18.82,57.5061074 L34.32,57.507 L34.32,21.418 L18.749,21.418 L18.75,23.683288 L17.25,23.683288 L17.25,19.9181074 L35.8203022,19.9181074 Z M17.32,32.418 L1.75,32.418 L1.75,57.5071074 L17.32,57.5071074 L17.32,32.418 Z" id="Combined-Shape" fill="#000000" fill-rule="nonzero"></path>
                    <path d="M8.36788147,12.63196 C10.4192349,10.4882018 11.6460475,9.73798255 12.9736819,11.0336738 C13.6333207,11.6774416 13.7395315,12.022205 13.7070818,13.8283148 L13.7070818,13.8283148 L13.6628447,15.673319 C13.6537759,16.2717867 13.6600548,16.7272589 13.6868351,17.1715706 L13.6868351,17.1715706 L13.7149307,17.5527509 C13.7944772,18.4699049 13.9648998,19.2294445 14.2410775,19.8414664 L14.2410775,19.8414664 L14.3967229,20.2121678 C16.0727581,24.3202399 15.8012577,27.431682 13.8419201,29.4478537 C12.4583051,30.8716029 10.4347247,31.5 8.70226163,31.5 C6.79506803,31.5 4.50776058,28.9466333 3.77867428,25.898832 C2.8384606,21.9684544 4.20776804,17.4272868 8.36788147,12.63196 Z M10.689,14.543 L10.5849678,14.6516408 C7.16864785,18.5918671 6.05633519,22.0810176 6.64350213,24.9621864 L6.64350213,24.9621864 L6.69635373,25.2008731 C6.94947635,26.2590022 7.4343086,27.1720603 8.03326394,27.8406861 C8.26920048,28.1040667 8.50587422,28.3082025 8.70700476,28.4345939 L8.70700476,28.4345939 L8.78000083,28.4836968 C8.785676,28.4902543 8.78334107,28.4943301 8.77103741,28.4967665 L8.77103741,28.4967665 L8.746,28.499 L8.91952665,28.4940128 C9.80253791,28.4461636 10.8390005,28.112082 11.5262475,27.5124907 L11.5262475,27.5124907 L11.6904931,27.3570735 C12.7540112,26.2627061 12.8934764,24.311906 11.4951364,21.0493558 L11.4951364,21.0493558 L11.3695381,20.7517365 C11.0224324,19.8764992 10.8208287,18.9035855 10.7261511,17.8119733 C10.6598218,17.0472102 10.6470984,16.379947 10.6676305,15.3756045 L10.6676305,15.3756045 L10.689,14.543 Z M24.7780042,2.30006737 C26.8293577,0.156309224 28.0561703,-0.593910054 29.3838047,0.701781214 C30.0434435,1.345549 30.1496543,1.69031235 30.1172046,3.49642225 L30.1172046,3.49642225 L30.0729675,5.34142641 C30.0613076,6.11088488 30.0750183,6.64396299 30.1250535,7.22085825 C30.2046,8.13801234 30.3750225,8.89755192 30.6512003,9.5095738 L30.6512003,9.5095738 L30.8068457,9.8802752 C32.4828809,13.9883473 32.2113805,17.0997894 30.2520428,19.1159611 C28.8684279,20.5397103 26.8448475,21.1681074 25.1123844,21.1681074 C23.2051908,21.1681074 20.9178834,18.6147407 20.1887971,15.5669394 C19.2485834,11.6365618 20.6178908,7.09539422 24.7780042,2.30006737 Z M27.099,4.212 L26.9950906,4.31974823 C23.4838728,8.36942519 22.4064406,11.9426186 23.1064765,14.8689805 C23.3595991,15.9271096 23.8444314,16.8401677 24.4433867,17.5087935 C24.6793232,17.7721741 24.915997,17.9763099 25.1171275,18.1027013 L25.1171275,18.1027013 L25.1901236,18.1518042 C25.1957988,18.1583617 25.1934638,18.1624375 25.1811602,18.1648739 L25.1811602,18.1648739 L25.156,18.167 L25.3296494,18.1621202 C26.2126607,18.114271 27.2491233,17.7801894 27.9363703,17.1805981 L27.9363703,17.1805981 L28.1006158,17.0251809 C29.1641339,15.9308135 29.3035991,13.9800134 27.9052592,10.7174632 L27.9052592,10.7174632 L27.7796608,10.4198439 C27.4759433,9.65401129 27.2836258,8.81339515 27.1768655,7.88391232 L27.1768655,7.88391232 L27.1362739,7.48008065 C27.0699445,6.71531762 27.0572212,6.04805442 27.0777533,5.04371187 L27.0777533,5.04371187 L27.099,4.212 Z" id="Combined-Shape" fill="#DC3737" fill-rule="nonzero"></path>
                </g>
            </g>
        </g>
    </g>
</svg>