<?xml version="1.0" encoding="UTF-8"?>
<svg width="60px" height="52px" viewBox="0 0 60 52" version="1.1" xmlns="http://www.w3.org/2000/svg" xmlns:xlink="http://www.w3.org/1999/xlink">
    <!-- Generator: Sketch 61.2 (89653) - https://sketch.com -->
    <title>services</title>
    <desc>Created with Sketch.</desc>
    <g id="final-web" stroke="none" stroke-width="1" fill="none" fill-rule="evenodd">
        <g id="01.main-page-final-new-copy" transform="translate(-1041.000000, -1205.000000)">
            <g id="Group-7-Copy-4" transform="translate(1021.000000, 1181.000000)">
                <g id="services" transform="translate(20.000000, 24.000000)">
                    <path d="M30,0.223880597 C41.638903,0.223880597 51.3747127,8.37199138 53.8143139,19.2750977 C54.2129567,19.1150237 54.6350446,19.0298507 55.0746269,19.0298507 C57.7491848,19.0298507 59.7761194,22.1828601 59.7761194,25.9701493 C59.7761194,29.7574384 57.7491848,32.9104478 55.0746269,32.9104478 C54.3865202,32.9104478 53.7412811,32.7017428 53.1623993,32.3272265 C50.4132741,40.603626 43.3511295,46.9122615 34.6404875,48.5891833 C34.3207708,50.3675787 32.7656657,51.7164179 30.8955224,51.7164179 C28.7935431,51.7164179 27.0895522,50.012427 27.0895522,47.9104478 C27.0895522,45.8084685 28.7935431,44.1044776 30.8955224,44.1044776 C32.7614505,44.1044776 34.3137589,45.4472433 34.6388742,47.2192012 C42.9511854,45.5225267 49.6364703,39.3517983 52.0698056,31.3317052 C51.0215028,30.0512589 50.3731343,28.1121497 50.3731343,25.9701493 C50.3731343,23.4838893 51.2466604,21.270978 52.6034863,20.043999 C50.4791413,9.50409898 41.1664559,1.56716418 30,1.56716418 C18.8336548,1.56716418 9.52104336,9.50394159 7.39570186,20.0439601 C8.75333959,21.270978 9.62686567,23.4838893 9.62686567,25.9701493 C9.62686567,29.7574384 7.5999311,32.9104478 4.92537313,32.9104478 C2.25081517,32.9104478 0.223880597,29.7574384 0.223880597,25.9701493 C0.223880597,22.1828601 2.25081517,19.0298507 4.92537313,19.0298507 C5.36532606,19.0298507 5.78775508,19.1151674 6.18652081,19.2745896 C8.6254429,8.37186118 18.36119,0.223880597 30,0.223880597 Z M30.8955224,45.4477612 C29.5354182,45.4477612 28.4328358,46.5503435 28.4328358,47.9104478 C28.4328358,49.270552 29.5354182,50.3731343 30.8955224,50.3731343 C32.2556266,50.3731343 33.358209,49.270552 33.358209,47.9104478 C33.358209,46.5503435 32.2556266,45.4477612 30.8955224,45.4477612 Z M30,7.3880597 C39.5207296,7.3880597 47.238806,15.106136 47.238806,24.6268657 C47.238806,34.1475953 39.5207296,41.8656716 30,41.8656716 C20.4792704,41.8656716 12.761194,34.1475953 12.761194,24.6268657 C12.761194,15.106136 20.4792704,7.3880597 30,7.3880597 Z M30,8.73134328 C21.2211454,8.73134328 14.1044776,15.8480111 14.1044776,24.6268657 C14.1044776,33.4057203 21.2211454,40.5223881 30,40.5223881 C38.7788546,40.5223881 45.8955224,33.4057203 45.8955224,24.6268657 C45.8955224,15.8480111 38.7788546,8.73134328 30,8.73134328 Z M55.0746269,20.3731343 C53.2979346,20.3731343 51.7164179,22.8332714 51.7164179,25.9701493 C51.7164179,29.1070271 53.2979346,31.5671642 55.0746269,31.5671642 C56.8513191,31.5671642 58.4328358,29.1070271 58.4328358,25.9701493 C58.4328358,22.8332714 56.8513191,20.3731343 55.0746269,20.3731343 Z M4.92537313,20.3731343 C3.14868088,20.3731343 1.56716418,22.8332714 1.56716418,25.9701493 C1.56716418,29.1070271 3.14868088,31.5671642 4.92537313,31.5671642 C6.70206539,31.5671642 8.28358209,29.1070271 8.28358209,25.9701493 C8.28358209,22.8332714 6.70206539,20.3731343 4.92537313,20.3731343 Z" id="Combined-Shape" fill="#000000" fill-rule="nonzero"></path>
                    <path d="M39.9731406,35.5297484 C42.9249521,32.8281663 44.7761194,28.9436976 44.7761194,24.6268657 C44.7761194,16.4662403 38.1606254,9.85074627 30,9.85074627 C26.0428667,9.85074627 22.4490456,11.4062704 19.7966469,13.9392083" id="Oval" fill="#E0E0E0"></path>
                    <path d="M20.8347543,27.6351269 C21.5320102,26.9334966 22.6660315,26.9299505 23.3676617,27.6272065 C25.6601598,29.9054119 27.8352094,30.9861566 29.9130082,30.9861566 C31.9908069,30.9861566 34.1658566,29.9054119 36.4583546,27.6272065 C37.1599849,26.9299505 38.2940062,26.9334966 38.9912621,27.6351269 C39.688518,28.3367571 39.6849719,29.4707784 38.9833417,30.1680343 C36.0706131,33.0626035 33.0404361,34.5682462 29.9130082,34.5682462 C26.7855802,34.5682462 23.7554033,33.0626035 20.8426747,30.1680343 C20.1410444,29.4707784 20.1374984,28.3367571 20.8347543,27.6351269 Z" id="Path-88" fill="#DC3737" fill-rule="nonzero"></path>
                </g>
            </g>
        </g>
    </g>
</svg>