<?xml version="1.0" encoding="UTF-8"?>
<svg width="40px" height="54px" viewBox="0 0 40 54" version="1.1" xmlns="http://www.w3.org/2000/svg" xmlns:xlink="http://www.w3.org/1999/xlink">
    <!-- Generator: Sketch 61.2 (89653) - https://sketch.com -->
    <title>tenders&amp;notices</title>
    <desc>Created with Sketch.</desc>
    <g id="final-web" stroke="none" stroke-width="1" fill="none" fill-rule="evenodd">
        <g id="01.main-page-final-new-copy" transform="translate(-724.000000, -1084.000000)">
            <g id="Group-7-Copy-3" transform="translate(694.000000, 1061.000000)">
                <g id="tenders&amp;notices" transform="translate(30.000000, 23.000000)">
                    <polygon id="Rectangle" fill="#D8D8D8" points="39 4.55916341 39 52.6841634 21.8281599 52.6841634"></polygon>
                    <path d="M39.75,3.80916341 L0.25,3.80916341 L0.25,53.4341634 L39.75,53.4341634 L39.75,3.80916341 Z M38.25,5.309 L38.25,51.934 L1.75,51.934 L1.75,5.309 L38.25,5.309 Z" id="Rectangle" fill="#000000" fill-rule="nonzero"></path>
                    <polygon id="Path-188" fill="#DC3737" points="7.59309896 -1.8189894e-12 9.71805246 1.57104492 7.59309896 4.55916341 5.99209449 7.75227865 30.1980097 7.75227865 28.5289714 6.33773484 30.1980097 3.87613932 28.5289714 1.57104492 30.1980097 -1.8189894e-12"></polygon>
                    <path d="M21.0781599,31.8529867 C21.4923734,31.8529867 21.8281599,32.1887731 21.8281599,32.6029867 C21.8281599,32.9826824 21.546006,33.2964776 21.1799304,33.34614 L21.0781599,33.3529867 L8.55507115,33.3529867 C8.14085759,33.3529867 7.80507115,33.0172002 7.80507115,32.6029867 C7.80507115,32.2232909 8.08722503,31.9094957 8.45330059,31.8598333 L8.55507115,31.8529867 L21.0781599,31.8529867 Z M27.7333287,24.9779867 C28.1475422,24.9779867 28.4833287,25.3137731 28.4833287,25.7279867 C28.4833287,26.1076824 28.2011748,26.4214776 27.8350992,26.47114 L27.7333287,26.4779867 L8.55507115,26.4779867 C8.14085759,26.4779867 7.80507115,26.1422002 7.80507115,25.7279867 C7.80507115,25.3482909 8.08722503,25.0344957 8.45330059,24.9848333 L8.55507115,24.9779867 L27.7333287,24.9779867 Z M27.7333287,18.1029867 C28.1475422,18.1029867 28.4833287,18.4387731 28.4833287,18.8529867 C28.4833287,19.2326824 28.2011748,19.5464776 27.8350992,19.59614 L27.7333287,19.6029867 L8.55507115,19.6029867 C8.14085759,19.6029867 7.80507115,19.2672002 7.80507115,18.8529867 C7.80507115,18.4732909 8.08722503,18.1594957 8.45330059,18.1098333 L8.55507115,18.1029867 L27.7333287,18.1029867 Z" id="Combined-Shape" fill="#000000" fill-rule="nonzero"></path>
                </g>
            </g>
        </g>
    </g>
</svg>