<?xml version="1.0" encoding="UTF-8"?>
<svg width="55px" height="54px" viewBox="0 0 55 54" version="1.1" xmlns="http://www.w3.org/2000/svg" xmlns:xlink="http://www.w3.org/1999/xlink">
    <!-- Generator: Sketch 61.2 (89653) - https://sketch.com -->
    <title>travel</title>
    <desc>Created with Sketch.</desc>
    <g id="final-web" stroke="none" stroke-width="1" fill="none" fill-rule="evenodd">
        <g id="01.main-page-final-new-copy" transform="translate(-62.000000, -1324.000000)">
            <g id="Group-6-Copy-5" transform="translate(40.000000, 1301.000000)">
                <g id="travel" transform="translate(22.000000, 23.000000)">
                    <path d="M28.7053894,47 C39.7510844,47 48.7053894,38.045695 48.7053894,27 C48.7053894,15.954305 39.7510844,7 28.7053894,7 C17.6596944,7 8.70538939,15.954305 8.70538939,27" id="Oval" fill="#E0E0E0" transform="translate(28.705389, 27.000000) rotate(200.000000) translate(-28.705389, -27.000000) "></path>
                    <path d="M54.3396447,10 C52.6981433,9.3250094 49.4196599,10.1842223 44.5041945,12.5776386 C44.3798678,12.6265895 39.2934985,10.6885223 29.2450867,6.76343705 L26.6069125,9.67099005 L36.8142041,16.3961787 L36.8142041,17.1323592 L30.7828776,23.0556641 L27.5,22.4586589 L25.7434896,24.546224 L28.7053894,25.7845052 C27.5429387,27.5071615 27.1411422,28.640408 27.5,29.1842448 C27.8588578,29.7280816 29.1534466,29.7280816 31.3837664,29.1842448 L32.1923828,34.0605469 L34.6526105,31.2793234 L34.6526105,27.9422959 L42.2141927,24.1163271 L45.3946611,35.163737 L49.5094401,32.2578518 L48.8619792,18.9788411 L53.8789063,11.757995 L54.3396447,10 Z" id="Path-51" fill="#FFFFFF"></path>
                    <path d="M37.4375199,1.71529392 L37.8544282,1.86322239 L37.341398,3.27276133 C24.2372059,-1.49677453 9.74768658,5.25979931 4.97815072,18.3639914 C0.208614858,31.4681835 6.9651887,45.9577028 20.0693808,50.7272387 C33.0425309,55.4490792 47.3734404,48.8741796 52.2866371,36.0272249 L52.4326281,35.6360086 L53.842167,36.1490388 C48.7892924,50.0316978 33.4390095,57.1896522 19.5563506,52.1367776 C5.67369163,47.083903 -1.48426284,31.7336201 3.56861179,17.8509612 C8.57095766,4.10712882 23.6657934,-3.04582067 37.4375199,1.71529392 Z M37.1309963,16.1677631 C44.6404228,10.7863535 52.9692935,7.15744759 54.6493771,9.46643421 C55.7744749,11.0126888 53.4647694,14.6459684 49.6507326,18.4821314 L50.0941502,32.9316538 L44.8699,37.0412841 L41.8898905,24.9694858 C39.7902964,26.3750877 37.358505,27.5658691 35.079252,28.432374 L35.5141854,28.485602 L35.0572202,32.2072844 L32.3048848,35.9728638 L30.9407033,29.6853166 C29.0105376,30.0932739 27.5789794,30.0807637 27.1767363,29.5279494 C26.7875075,28.9930211 27.1768179,27.7005366 28.0932416,26.0724773 L24.8145809,24.9730537 L27.3242159,21.769381 L30.7945803,22.1964593 C32.4936189,20.1146558 34.6117211,17.9939868 36.8142006,16.3961739 L36.8142006,16.3961739 Z M48.1930473,19.8900229 C46.6896625,21.2868308 45.019886,22.6801393 43.2753635,23.980502 L43.2753635,23.980502 L43.2031093,24.0327199 L45.7688955,34.4244704 L48.570379,32.2204569 Z M33.9598392,28.8363029 C33.4224842,29.0196606 32.8988351,29.1828705 32.3958098,29.3243704 L33.0625656,32.3931562 L33.6159701,31.6359552 Z M53.4364778,10.3489737 C53.1137009,9.90537231 50.9665923,10.2931702 47.9128757,11.6392098 C44.7449673,13.0355837 40.9363041,15.2589177 37.6950202,17.6103298 L37.6950202,17.6103298 L37.192537,17.9836201 C34.5357748,20.0040871 32.2530655,22.4898778 30.5167606,25.0579871 C29.7970788,26.122444 29.2197669,27.1371976 28.8521292,27.9521136 C28.7736008,28.1261819 28.707013,28.2862581 28.6533039,28.4285859 L28.6533039,28.4285859 L28.6398063,28.4643499 L28.8386906,28.4534482 L29.0108105,28.4396048 L29.1951324,28.4211426 C30.0850827,28.3238264 31.2301452,28.0891386 32.4665289,27.7346036 C35.6357216,26.8258327 38.9069768,25.30256 41.7788202,23.2191943 C44.9822227,20.8952214 48.2521043,17.9316704 50.5550892,15.2851622 C52.7466938,12.7666484 53.7657695,10.801529 53.4364778,10.3489737 Z M27.9826866,23.3605909 L27.3042414,24.2253551 L28.8982976,24.7604646 C29.153027,24.3746723 29.4296733,23.9781102 29.7256437,23.5751296 L27.9826866,23.3605909 Z" id="Combined-Shape" fill="#000000" fill-rule="nonzero"></path>
                    <polygon id="Path-98" fill="#000000" fill-rule="nonzero" transform="translate(34.652610, 11.757995) rotate(7.000000) translate(-34.652610, -11.757995) " points="24.4746987 10.9001686 28.1921729 6.50644049 44.8305222 9.90120277 44.5306517 11.370923 28.762 8.154 26.886 10.371 38.1765409 15.6507403 37.5412161 17.0095495"></polygon>
                    <path d="M22.2997593,32.5849459 C22.9475688,32.0685794 23.8913199,32.1751349 24.4076864,32.8229444 C24.924053,33.4707539 24.8174974,34.414505 24.1696879,34.9308715 C14.3696872,42.7424158 6.77688049,45.8433585 1.22618111,43.9719969 C0.441167169,43.7073375 0.0193364869,42.8564091 0.283995913,42.0713952 C0.548655338,41.2863812 1.39958373,40.8645506 2.18459767,41.12921 C6.47107186,42.5743509 13.2311546,39.8134971 22.2997593,32.5849459 Z" id="Path-101" fill="#DC3737" fill-rule="nonzero"></path>
                </g>
            </g>
        </g>
    </g>
</svg>