<?xml version="1.0" encoding="UTF-8"?>
<svg width="61px" height="39px" viewBox="0 0 61 39" version="1.1" xmlns="http://www.w3.org/2000/svg" xmlns:xlink="http://www.w3.org/1999/xlink">
    <!-- Generator: Sketch 61.2 (89653) - https://sketch.com -->
    <title>vahicles</title>
    <desc>Created with Sketch.</desc>
    <g id="final-web" stroke="none" stroke-width="1" fill="none" fill-rule="evenodd">
        <g id="01.main-page-final-new-copy" transform="translate(-388.000000, -1331.000000)">
            <g id="Group-6-Copy-7" transform="translate(367.000000, 1301.000000)">
                <g id="vahicles" transform="translate(21.000000, 30.000000)">
                    <path d="M3.66702089,20.6844035 L3.07604121,20.6844035 C1.97147171,20.6844035 1.07604121,19.788973 1.07604121,18.6844035 L1.07604121,16.2160263 C1.07604121,15.7463957 1.24130623,15.2917426 1.54287815,14.9317324 L12.5921481,1.74134704 C12.9721518,1.28770671 13.5335407,1.02564103 14.1253112,1.02564103 L32.3790951,1.02564103 C33.0458951,1.02564103 33.6688389,1.35795304 34.0402045,1.911767 L41.560285,13.1263897 L41.560285,13.1263897 L55.3748236,19.4871795" id="Path-34" fill="#D8D8D8"></path>
                    <path d="M32.620464,0.256410256 C33.2827622,0.256410256 33.9119377,0.588045415 34.3574805,1.16499291 L34.4649535,1.3142905 L41.9448028,12.4697436 L59.1845733,19.4827604 C60.0913436,19.8516074 60.7166065,20.8343239 60.7799118,21.9631337 L60.7852113,22.1525412 L60.7852113,27.9011418 C60.7852113,29.4011745 59.8043101,30.6277103 58.5664628,30.7165072 L58.4225352,30.7216546 L54.5969879,30.7216546 L54.5969879,29.1831931 L58.4225352,29.1831931 C58.9785877,29.1831931 59.4359376,28.6787063 59.4909342,28.0322241 L59.4964789,27.9011418 L59.4964789,22.1525412 C59.4964789,21.6495696 59.2507009,21.1977103 58.8746258,20.9895798 L58.7689162,20.9390045 L41.1746399,13.7821813 L33.4588683,2.27572645 C33.2805341,2.00977834 33.022076,1.84108508 32.7417653,1.8030672 L32.620464,1.79487179 L13.9034251,1.79487179 C13.6592872,1.79487179 13.4237201,1.89410901 13.2345663,2.0738711 L13.1440323,2.17037592 L2.03495822,15.4321541 C1.86232665,15.6382381 1.75453636,15.9072585 1.72726222,16.1940397 L1.72040741,16.3387013 L1.72040741,27.9011418 C1.72040741,28.5649456 2.14300395,29.1109202 2.68454657,29.176574 L2.79435107,29.1831931 L3.66702089,29.1831931 L3.66702089,30.7216546 L2.79435107,30.7216546 C1.53780963,30.7216546 0.510369926,29.5506756 0.435986933,28.0729596 L0.431675011,27.9011418 L0.431675011,16.3387013 C0.431675011,15.658659 0.637397395,15.0039374 1.00769982,14.4931103 L1.12368681,14.3442976 L12.2327609,1.08251934 C12.6355679,0.601656826 13.1688445,0.312355012 13.7332642,0.263728753 L13.9034251,0.256410256 L32.620464,0.256410256 Z M37.2176015,29.4396034 L37.2176015,30.6333823 L21.1586322,30.6333823 L21.1586322,29.4396034 L37.2176015,29.4396034 Z M23.9491452,4.1025641 L23.9491452,11.0236378 C23.9491452,12.801106 25.11455,14.2536336 26.5829501,14.3516944 L26.7413988,14.3569712 L37.2176015,14.3569712 L37.2176015,15.8954327 L26.7413988,15.8954327 C24.5501399,15.8954327 22.7622488,13.8337493 22.6646123,11.2466409 L22.6604129,11.0236378 L22.6604129,4.1025641 L23.9491452,4.1025641 Z" id="Combined-Shape" fill="#000000" fill-rule="nonzero"></path>
                    <path d="M45,24 C41.1340068,24 38,27.3578644 38,31.5 C38,35.6421356 41.1340068,39 45,39 C48.8659932,39 52,35.6421356 52,31.5 C52,27.3578644 48.8659932,24 45,24 Z M45,26.8125 C47.4162458,26.8125 49.375,28.9111652 49.375,31.5 C49.375,34.0888348 47.4162458,36.1875 45,36.1875 C42.5837542,36.1875 40.625,34.0888348 40.625,31.5 C40.625,28.9111652 42.5837542,26.8125 45,26.8125 Z" id="Combined-Shape" fill="#DC3737" fill-rule="nonzero"></path>
                    <path d="M12,24 C8.13400675,24 5,27.3578644 5,31.5 C5,35.6421356 8.13400675,39 12,39 C15.8659932,39 19,35.6421356 19,31.5 C19,27.3578644 15.8659932,24 12,24 Z M12,26.8125 C14.4162458,26.8125 16.375,28.9111652 16.375,31.5 C16.375,34.0888348 14.4162458,36.1875 12,36.1875 C9.58375422,36.1875 7.625,34.0888348 7.625,31.5 C7.625,28.9111652 9.58375422,26.8125 12,26.8125 Z" id="Combined-Shape" fill="#DC3737" fill-rule="nonzero"></path>
                </g>
            </g>
        </g>
    </g>
</svg>