<?xml version="1.0" encoding="UTF-8"?>
<svg width="124px" height="90px" viewBox="0 0 124 90" version="1.1" xmlns="http://www.w3.org/2000/svg" xmlns:xlink="http://www.w3.org/1999/xlink">
    <!-- Generator: Sketch 61.2 (89653) - https://sketch.com -->
    <title>exclusive-offers</title>
    <desc>Created with Sketch.</desc>
    <g id="final-web" stroke="none" stroke-width="1" fill="none" fill-rule="evenodd">
        <g id="01.main-page-final-new-copy" transform="translate(-102.000000, -4063.000000)">
            <g id="exclusive-offers" transform="translate(102.000000, 4063.000000)">
                <g id="Group-16-Copy-6">
                    <path d="M15.0391348,78.6696214 C31.2017805,87.5944203 53.6886926,77.9641355 65.2650587,57.1597781 C76.8414249,36.3554206 73.1235108,12.2551776 56.9608652,3.33037863 C40.7982195,-5.59442035 18.3113074,4.03586454 6.73494127,24.8402219 C-4.84142489,45.6445794 -1.12351079,69.7448224 15.0391348,78.6696214 Z" id="Oval" fill="#F5F5F5"></path>
                    <path d="M71.0338819,79.584688 C76.1723347,88.1704727 98.8556591,93.7581005 110.079925,86.9870969 C121.304191,80.2160932 123.50972,60.3645478 118.371268,51.7787631 C113.232815,43.1929784 93.277487,45.0077595 82.0532212,51.7787631 C70.8289553,58.5497667 65.8954291,70.9989033 71.0338819,79.584688 Z" id="Oval" fill="#F5F5F5"></path>
                    <circle id="Oval" fill="#F5F5F5" cx="109" cy="25" r="15"></circle>
                    <rect id="Rectangle" fill="#FFFFFF" x="28" y="33" width="53" height="39"></rect>
                    <path d="M81.5,32.5 L27.5,32.5 L27.5,72.5 L81.5,72.5 L81.5,32.5 Z M80.5,33.5 L80.5,71.5 L28.5,71.5 L28.5,33.5 L80.5,33.5 Z" id="Rectangle" fill="#000000" fill-rule="nonzero"></path>
                    <rect id="Rectangle" fill="#DC3737" x="23" y="26" width="62" height="11"></rect>
                    <path d="M85.5,25.5 L22.5,25.5 L22.5,37.5 L85.5,37.5 L85.5,25.5 Z M84.5,26.5 L84.5,36.5 L23.5,36.5 L23.5,26.5 L84.5,26.5 Z" id="Rectangle" fill="#000000" fill-rule="nonzero"></path>
                    <rect id="Rectangle" fill="#FFFFFF" transform="translate(54.000000, 46.500000) rotate(90.000000) translate(-54.000000, -46.500000) " x="28.5" y="41.5" width="51" height="10"></rect>
                    <path d="M80,41 L28,41 L28,52 L80,52 L80,41 Z M79,42 L79,51 L29,51 L29,42 L79,42 Z" id="Rectangle" fill="#000000" fill-rule="nonzero" transform="translate(54.000000, 46.500000) rotate(90.000000) translate(-54.000000, -46.500000) "></path>
                    <path d="M31.3783673,21.6062738 L30.6216327,20.9525516 L31.2509338,20.233872 C38.3413911,12.2479761 44.0163257,9.67519701 48.2369819,12.7549028 L48.4222437,12.8944402 L48.5348169,13.0169625 C50.4941505,16.0341931 49.462914,20.3467248 45.5670967,25.9386374 L45.3198794,26.2897977 L44.5049749,25.7102023 C48.308891,20.3619395 49.3659673,16.3745033 47.8018584,13.7320156 L47.74,13.633 L47.6405875,13.5578943 C43.9752436,10.9011157 38.7786917,13.2632942 32.0124293,20.8822341 L31.3783673,21.6062738 Z" id="Path-3" fill="#000000" fill-rule="nonzero" transform="translate(40.061849, 18.890678) scale(-1, 1) translate(-40.061849, -18.890678) "></path>
                    <path d="M57.6973833,20.7690557 C66.9140988,13.7616093 73.8021522,11.7805151 78.3409202,14.9906914 L78.5456098,15.1401844 L78.6601566,15.2613384 C80.7806063,18.4292518 78.9035746,22.0887972 73.2878084,26.1792964 L72.9719766,26.4069894 L72.3910819,25.5930106 C77.764527,21.7582598 79.5231167,18.5698033 77.9250558,15.9670898 L77.874,15.888 L77.7543799,15.8008363 C73.7420545,12.977733 67.4031324,14.7422753 58.7179694,21.2515513 L58.3026167,21.5651038 L57.6973833,20.7690557 Z" id="Path-3" fill="#000000" fill-rule="nonzero"></path>
                    <path d="M57.9650002,7.50113943 L58.0552158,7.50305813 C58.3296692,7.53355296 58.5274367,7.78076235 58.4969419,8.05521576 L57.4969419,17.0552158 C57.466447,17.3296692 57.2192377,17.5274367 56.9447842,17.4969419 C56.6703308,17.466447 56.4725633,17.2192377 56.5030581,16.9447842 L57.5030581,7.94478424 C57.5301646,7.70082565 57.7285024,7.51745838 57.9650002,7.50113943 Z" id="Path-4" fill="#000000" fill-rule="nonzero"></path>
                    <path d="M48.8787322,4.51492875 C49.1168633,4.45539598 49.3578149,4.57747681 49.4554581,4.7934938 L49.4850713,4.87873219 L52.4850713,16.8787322 C52.5520456,17.1466296 52.3891653,17.4180969 52.1212678,17.4850713 C51.8831367,17.544604 51.6421851,17.4225232 51.5445419,17.2065062 L51.5149287,17.1212678 L48.5149287,5.12126781 C48.4479544,4.85337036 48.6108347,4.58190311 48.8787322,4.51492875 Z" id="Path-6" fill="#000000" fill-rule="nonzero"></path>
                    <ellipse id="Oval" fill="#DC3737" cx="95.5" cy="29" rx="1.5" ry="2"></ellipse>
                    <circle id="Oval" fill="#DC3737" cx="98" cy="71" r="2"></circle>
                    <ellipse id="Oval-Copy-5" fill="#FF9B00" cx="110" cy="28.5" rx="4" ry="3.5"></ellipse>
                    <path d="M93.6025225,14.0116027 C92.0241722,12.3346055 90.2191933,11.4954128 88.1875859,11.4940248 C90.7158974,10.901614 92.5208763,10.030784 93.6025225,8.88153488 C94.6841688,7.73228575 95.5458565,5.76978239 96.1875859,2.9940248 L96.300454,3.40428903 C97.0227265,5.96399959 97.8863769,7.78974821 98.8914052,8.88153488 C99.9493296,10.030784 101.714723,10.901614 104.187586,11.4940248 C102.200534,11.4954128 100.43514,12.3346055 98.8914052,14.0116027 C97.3476699,15.6886 96.4463968,17.6827407 96.1875859,19.9940248 L96.1875859,19.9940248 C96.0425607,17.6827407 95.1808729,15.6886 93.6025225,14.0116027 Z" id="Combined-Shape" fill="#DC3737"></path>
                </g>
            </g>
        </g>
    </g>
</svg>