<?xml version="1.0" encoding="UTF-8"?>
<svg width="115px" height="89px" viewBox="0 0 115 89" version="1.1" xmlns="http://www.w3.org/2000/svg" xmlns:xlink="http://www.w3.org/1999/xlink">
    <!-- Generator: Sketch 61.2 (89653) - https://sketch.com -->
    <title>offical-ad-booking-portal</title>
    <desc>Created with Sketch.</desc>
    <g id="final-web" stroke="none" stroke-width="1" fill="none" fill-rule="evenodd">
        <g id="01.main-page-final-new-copy" transform="translate(-112.000000, -3909.000000)">
            <g id="offical-ad-booking-portal" transform="translate(107.000000, 3909.000000)">
                <g id="Group-16-Copy-4" transform="translate(5.000000, 0.000000)">
                    <path d="M15.0391348,78.6696214 C31.2017805,87.5944203 53.6886926,77.9641355 65.2650587,57.1597781 C76.8414249,36.3554206 73.1235108,12.2551776 56.9608652,3.33037863 C40.7982195,-5.59442035 18.3113074,4.03586454 6.73494127,24.8402219 C-4.84142489,45.6445794 -1.12351079,69.7448224 15.0391348,78.6696214 Z" id="Oval" fill="#F5F5F5" transform="translate(36.000000, 41.000000) scale(-1, 1) translate(-36.000000, -41.000000) "></path>
                    <path d="M64.0338819,78.584688 C69.1723347,87.1704727 91.8556591,92.7581005 103.079925,85.9870969 C114.304191,79.2160932 116.50972,59.3645478 111.371268,50.7787631 C106.232815,42.1929784 86.277487,44.0077595 75.0532212,50.7787631 C63.8289553,57.5497667 58.8954291,69.9989033 64.0338819,78.584688 Z" id="Oval" fill="#F5F5F5"></path>
                    <circle id="Oval" fill="#F5F5F5" cx="88" cy="33" r="15"></circle>
                    <circle id="Oval" fill="#DC3737" cx="91" cy="23" r="2"></circle>
                    <circle id="Oval" fill="#DC3737" cx="105" cy="49" r="2"></circle>
                    <ellipse id="Oval-Copy-5" fill="#FF9B00" cx="14" cy="45.5" rx="4" ry="3.5"></ellipse>
                    <path d="M17.6025225,15.0116027 C16.0241722,13.3346055 14.2191933,12.4954128 12.1875859,12.4940248 C14.7158974,11.901614 16.5208763,11.030784 17.6025225,9.88153488 C18.6841688,8.73228575 19.5458565,6.76978239 20.1875859,3.9940248 L20.300454,4.40428903 C21.0227265,6.96399959 21.8863769,8.78974821 22.8914052,9.88153488 C23.9493296,11.030784 25.7147232,11.901614 28.1875859,12.4940248 C26.200534,12.4954128 24.4351404,13.3346055 22.8914052,15.0116027 C21.3476699,16.6886 20.4463968,18.6827407 20.1875859,20.9940248 L20.1875859,20.9940248 C20.0425607,18.6827407 19.1808729,16.6886 17.6025225,15.0116027 Z" id="Combined-Shape" fill="#DC3737"></path>
                </g>
                <g id="Group-31" transform="translate(60.942792, 47.564662) rotate(-7.000000) translate(-60.942792, -47.564662) translate(3.942792, 16.064662)">
                    <path d="M112.799837,0.621271515 C113.009003,0.440982276 113.324719,0.464391489 113.505008,0.673557455 C113.665266,0.859482759 113.664576,1.1295956 113.51554,1.3139482 L113.452723,1.37872848 L100.224305,12.7808764 C100.015139,12.9611656 99.6994235,12.9377564 99.5191343,12.7285904 C99.3588772,12.5426651 99.359567,12.2725523 99.5086027,12.0881997 L99.5714202,12.0234194 L112.799837,0.621271515 Z" id="Path-38" fill="#000000" fill-rule="nonzero"></path>
                    <path d="M100.633339,55.7160027 L112.633339,58.7160027 C112.901237,58.7829771 113.064117,59.0544443 112.997143,59.3223418 C112.93761,59.5604728 112.716502,59.7156274 112.47995,59.7001281 L112.390804,59.6861452 L100.390804,56.6861452 C100.122906,56.6191708 99.9600258,56.3477036 100.027,56.0798061 C100.086533,55.8416751 100.30764,55.6865205 100.544193,55.7020198 L100.633339,55.7160027 Z" id="Path-39" fill="#000000" fill-rule="nonzero"></path>
                    <path d="M11.8610597,41.8265583 C12.1221005,41.73649 12.4067307,41.8750906 12.496799,42.1361315 C12.5768597,42.3681678 12.4762437,42.6188425 12.2695589,42.7349413 L12.1872259,42.7718708 L1.1630831,46.5755896 C0.902042274,46.6656579 0.617412086,46.5270573 0.527343779,46.2660164 C0.447283061,46.0339801 0.547899018,45.7833053 0.754583837,45.6672066 L0.836916903,45.6302771 L11.8610597,41.8265583 Z" id="Path-40" fill="#000000" fill-rule="nonzero"></path>
                    <rect id="Rectangle" fill="#FFFFFF" x="25.5120714" y="6.20107395" width="62" height="56"></rect>
                    <path d="M88.0120714,5.70107395 L25.0120714,5.70107395 L25.0120714,62.7010739 L88.0120714,62.7010739 L88.0120714,5.70107395 Z M87.012,6.701 L87.012,61.701 L26.012,61.701 L26.012,6.701 L87.012,6.701 Z" id="Rectangle" fill="#000000" fill-rule="nonzero"></path>
                    <path d="M46.0720714,44.2010739 L46.0720714,43.6410739 C45.194738,43.6224073 44.5554047,43.5524073 44.1540714,43.4310739 C43.752738,43.3097406 43.472738,43.0717406 43.3140714,42.7170739 C43.1554047,42.3624073 43.0760714,41.7930739 43.0760714,41.0090739 L43.0760714,41.0090739 L43.0760714,25.0210739 L43.7200714,25.0210739 C45.0640714,25.0210739 46.1234047,25.4877406 46.8980714,26.4210739 C47.672738,27.3544073 48.2840714,28.9690739 48.7320714,31.2650739 L48.7320714,31.2650739 L49.3760714,31.2650739 C49.3200714,30.7237406 49.2920714,30.0144073 49.2920714,29.1370739 C49.2920714,27.7370739 49.3574047,26.1504073 49.4880714,24.3770739 C47.9424714,24.4285939 45.3857055,24.4564147 41.8177738,24.4605363 L39.9101898,24.4605363 C36.3408842,24.4564147 33.7748447,24.4285939 32.2120714,24.3770739 C32.342738,26.1504073 32.4080714,27.7370739 32.4080714,29.1370739 C32.4080714,30.0144073 32.3800714,30.7237406 32.3240714,31.2650739 L32.3240714,31.2650739 L32.9680714,31.2650739 C33.2854047,29.6970739 33.6680714,28.4604073 34.1160714,27.5550739 C34.5640714,26.6497406 35.100738,26.0010739 35.7260714,25.6090739 C36.3514047,25.2170739 37.1120714,25.0210739 38.0080714,25.0210739 L38.0080714,25.0210739 L38.6240714,25.0210739 L38.6240714,41.0090739 C38.6240714,41.7930739 38.544738,42.3624073 38.3860714,42.7170739 C38.2274047,43.0717406 37.9474047,43.3097406 37.5460714,43.4310739 C37.144738,43.5524073 36.5054047,43.6224073 35.6280714,43.6410739 L35.6280714,43.6410739 L35.6280714,44.2010739 C37.8680714,44.1450739 39.5760714,44.1170739 40.7520714,44.1170739 C41.946738,44.1170739 43.7200714,44.1450739 46.0720714,44.2010739 L46.0720714,44.2010739 Z M61.3040714,44.5930739 C63.226738,44.5930739 64.9394047,44.1544073 66.4420714,43.2770739 C67.944738,42.3997406 69.1160714,41.1677406 69.9560714,39.5810739 C70.7960714,37.9944073 71.2160714,36.1744073 71.2160714,34.1210739 C71.2160714,32.0117406 70.8054047,30.1964073 69.9840714,28.6750739 C69.162738,27.1537406 68.0100714,25.9917406 66.5260714,25.1890739 C65.0420714,24.3864073 63.310738,23.9850739 61.3320714,23.9850739 C59.4094047,23.9850739 57.696738,24.4237406 56.1940714,25.3010739 C54.6914047,26.1784073 53.5200714,27.4104073 52.6800714,28.9970739 C51.8400714,30.5837406 51.4200714,32.4037406 51.4200714,34.4570739 C51.4200714,36.5664073 51.830738,38.3817406 52.6520714,39.9030739 C53.4734047,41.4244073 54.6260714,42.5864073 56.1100714,43.3890739 C57.5940714,44.1917406 59.3254047,44.5930739 61.3040714,44.5930739 Z M61.4160714,44.0890739 C60.426738,44.0890739 59.5260714,43.6877406 58.7140714,42.8850739 C57.9020714,42.0824073 57.2580714,40.9437406 56.7820714,39.4690739 C56.3060714,37.9944073 56.0680714,36.2864073 56.0680714,34.3450739 C56.0680714,32.4224073 56.2780714,30.7144073 56.6980714,29.2210739 C57.1180714,27.7277406 57.7200714,26.5657406 58.5040714,25.7350739 C59.2880714,24.9044073 60.1934047,24.4890739 61.2200714,24.4890739 C62.2094047,24.4890739 63.1100714,24.8904073 63.9220714,25.6930739 C64.7340714,26.4957406 65.3780714,27.6344073 65.8540714,29.1090739 C66.3300714,30.5837406 66.5680714,32.2917406 66.5680714,34.2330739 C66.5680714,36.1557406 66.3580714,37.8637406 65.9380714,39.3570739 C65.5180714,40.8504073 64.9160714,42.0124073 64.1320714,42.8430739 C63.3480714,43.6737406 62.442738,44.0890739 61.4160714,44.0890739 Z M82.0240714,44.2010739 L82.0240714,43.6410739 C81.3894047,43.6037406 80.9320714,43.5290739 80.6520714,43.4170739 C80.3720714,43.3050739 80.180738,43.0904073 80.0780714,42.7730739 C79.9754047,42.4557406 79.9240714,41.9424073 79.9240714,41.2330739 L79.9240714,41.2330739 L79.9240714,27.3450739 C79.9240714,26.6357406 79.9754047,26.1224073 80.0780714,25.8050739 C80.180738,25.4877406 80.3720714,25.2730739 80.6520714,25.1610739 C80.9320714,25.0490739 81.3894047,24.9744073 82.0240714,24.9370739 L82.0240714,24.9370739 L82.0240714,24.3770739 C81.0160714,24.4330739 79.606738,24.4610739 77.7960714,24.4610739 L77.4035736,24.4607006 C75.6044388,24.4572162 74.2606047,24.4293406 73.3720714,24.3770739 L73.3720714,24.3770739 L73.3720714,24.9370739 C73.9880714,24.9744073 74.440738,25.0490739 74.7300714,25.1610739 C75.0194047,25.2730739 75.2154047,25.4877406 75.3180714,25.8050739 C75.420738,26.1224073 75.4720714,26.6357406 75.4720714,27.3450739 L75.4720714,27.3450739 L75.4720714,41.2330739 C75.4720714,41.9424073 75.420738,42.4557406 75.3180714,42.7730739 C75.2154047,43.0904073 75.0194047,43.3050739 74.7300714,43.4170739 C74.440738,43.5290739 73.9880714,43.6037406 73.3720714,43.6410739 L73.3720714,43.6410739 L73.3720714,44.2010739 C74.3240714,44.1450739 75.798738,44.1170739 77.7960714,44.1170739 C79.606738,44.1170739 81.0160714,44.1450739 82.0240714,44.2010739 L82.0240714,44.2010739 Z" id="TOI" fill="#DC3737" fill-rule="nonzero"></path>
                </g>
            </g>
        </g>
    </g>
</svg>