<?xml version="1.0" encoding="UTF-8"?>
<svg width="124px" height="90px" viewBox="0 0 124 90" version="1.1" xmlns="http://www.w3.org/2000/svg" xmlns:xlink="http://www.w3.org/1999/xlink">
    <!-- Generator: Sketch 61.2 (89653) - https://sketch.com -->
    <title>premium-templates</title>
    <desc>Created with Sketch.</desc>
    <g id="final-web" stroke="none" stroke-width="1" fill="none" fill-rule="evenodd">
        <g id="01.main-page-final-new-copy" transform="translate(-787.000000, -3908.000000)">
            <g id="premium-templates" transform="translate(787.000000, 3908.000000)">
                <g id="Group-16-Copy-5">
                    <path d="M15.0391348,78.6696214 C31.2017805,87.5944203 53.6886926,77.9641355 65.2650587,57.1597781 C76.8414249,36.3554206 73.1235108,12.2551776 56.9608652,3.33037863 C40.7982195,-5.59442035 18.3113074,4.03586454 6.73494127,24.8402219 C-4.84142489,45.6445794 -1.12351079,69.7448224 15.0391348,78.6696214 Z" id="Oval" fill="#F5F5F5"></path>
                    <path d="M71.0338819,79.584688 C76.1723347,88.1704727 98.8556591,93.7581005 110.079925,86.9870969 C121.304191,80.2160932 123.50972,60.3645478 118.371268,51.7787631 C113.232815,43.1929784 93.277487,45.0077595 82.0532212,51.7787631 C70.8289553,58.5497667 65.8954291,70.9989033 71.0338819,79.584688 Z" id="Oval" fill="#F5F5F5"></path>
                    <circle id="Oval" fill="#F5F5F5" cx="109" cy="25" r="15"></circle>
                    <g id="Group-27" transform="translate(25.000000, 24.000000)">
                        <g id="Group-21">
                            <rect id="Rectangle" fill="#FFFFFF" x="1" y="1" width="68" height="51"></rect>
                            <path d="M69.5,0.5 L0.5,0.5 L0.5,52.5 L69.5,52.5 L69.5,0.5 Z M68.5,1.5 L68.5,51.5 L1.5,51.5 L1.5,1.5 L68.5,1.5 Z" id="Rectangle" fill="#000000" fill-rule="nonzero"></path>
                            <polygon id="Rectangle" fill="#DC3737" points="1.48046875 1.48583984 68.5668945 1.48583984 68.5668945 15.3867187 1.48046875 15.3867187"></polygon>
                            <line x1="1" y1="15.3867188" x2="69" y2="15.3867188" id="Path-15" stroke="#000000"></line>
                            <circle id="Oval" stroke="#000000" fill="#FFFFFF" cx="8" cy="8" r="2"></circle>
                            <circle id="Oval" stroke="#000000" fill="#FFFFFF" cx="15" cy="8" r="2"></circle>
                            <path d="M29.5,21.5 L29.5,42.5 L7.5,42.5 L7.5,21.5 L29.5,21.5 Z M59.5,33.5 L59.5,42.5 L37.5,42.5 L37.5,33.5 L59.5,33.5 Z M28.5,22.5 L8.5,22.5 L8.5,41.5 L28.5,41.5 L28.5,22.5 Z M58.5,34.5 L38.5,34.5 L38.5,41.5 L58.5,41.5 L58.5,34.5 Z M59.5,21.5 L59.5,30.5 L37.5,30.5 L37.5,21.5 L59.5,21.5 Z M58.5,22.5 L38.5,22.5 L38.5,29.5 L58.5,29.5 L58.5,22.5 Z" id="Combined-Shape" fill="#000000" fill-rule="nonzero"></path>
                        </g>
                    </g>
                    <ellipse id="Oval" fill="#DC3737" cx="104.5" cy="27" rx="1.5" ry="2"></ellipse>
                    <circle id="Oval" fill="#DC3737" cx="58" cy="16" r="2"></circle>
                    <ellipse id="Oval-Copy-5" fill="#FF9B00" cx="32" cy="13.5" rx="4" ry="3.5"></ellipse>
                    <path d="M6.60252252,62.0116027 C5.02417216,60.3346055 3.21919328,59.4954128 1.18758588,59.4940248 C3.7158974,58.901614 5.52087628,58.030784 6.60252252,56.8815349 C7.68416876,55.7322858 8.54585655,53.7697824 9.18758588,50.9940248 L9.30045402,51.404289 C10.0227265,53.9639996 10.8863769,55.7897482 11.8914052,56.8815349 C12.9493296,58.030784 14.7147232,58.901614 17.1875859,59.4940248 C15.200534,59.4954128 13.4351404,60.3346055 11.8914052,62.0116027 C10.3476699,63.6886 9.44639678,65.6827407 9.18758588,67.9940248 L9.18758588,67.9940248 C9.04256067,65.6827407 8.18087288,63.6886 6.60252252,62.0116027 Z" id="Combined-Shape" fill="#DC3737"></path>
                </g>
            </g>
        </g>
    </g>
</svg>