<?xml version="1.0" encoding="UTF-8"?>
<svg width="124px" height="90px" viewBox="0 0 124 90" version="1.1" xmlns="http://www.w3.org/2000/svg" xmlns:xlink="http://www.w3.org/1999/xlink">
    <!-- Generator: Sketch 61.2 (89653) - https://sketch.com -->
    <title>strong-customer-support</title>
    <desc>Created with Sketch.</desc>
    <g id="final-web" stroke="none" stroke-width="1" fill="none" fill-rule="evenodd">
        <g id="01.main-page-final-new-copy" transform="translate(-787.000000, -4058.000000)">
            <g id="strong-customer-support" transform="translate(787.000000, 4058.000000)">
                <path d="M15.0391348,78.6696214 C31.2017805,87.5944203 53.6886926,77.9641355 65.2650587,57.1597781 C76.8414249,36.3554206 73.1235108,12.2551776 56.9608652,3.33037863 C40.7982195,-5.59442035 18.3113074,4.03586454 6.73494127,24.8402219 C-4.84142489,45.6445794 -1.12351079,69.7448224 15.0391348,78.6696214 Z" id="Oval" fill="#F5F5F5"></path>
                <path d="M71.0338819,79.584688 C76.1723347,88.1704727 98.8556591,93.7581005 110.079925,86.9870969 C121.304191,80.2160932 123.50972,60.3645478 118.371268,51.7787631 C113.232815,43.1929784 93.277487,45.0077595 82.0532212,51.7787631 C70.8289553,58.5497667 65.8954291,70.9989033 71.0338819,79.584688 Z" id="Oval" fill="#F5F5F5"></path>
                <circle id="Oval" fill="#F5F5F5" cx="109" cy="25" r="15"></circle>
                <ellipse id="Oval" fill="#DC3737" cx="95.5" cy="79" rx="1.5" ry="2"></ellipse>
                <circle id="Oval" fill="#DC3737" cx="16" cy="53" r="2"></circle>
                <ellipse id="Oval-Copy-5" fill="#FF9B00" cx="110" cy="28.5" rx="4" ry="3.5"></ellipse>
                <path d="M23.6025225,18.0116027 C22.0241722,16.3346055 20.2191933,15.4954128 18.1875859,15.4940248 C20.7158974,14.901614 22.5208763,14.030784 23.6025225,12.8815349 C24.6841688,11.7322858 25.5458565,9.76978239 26.1875859,6.9940248 L26.300454,7.40428903 C27.0227265,9.96399959 27.8863769,11.7897482 28.8914052,12.8815349 C29.9493296,14.030784 31.7147232,14.901614 34.1875859,15.4940248 C32.200534,15.4954128 30.4351404,16.3346055 28.8914052,18.0116027 C27.3476699,19.6886 26.4463968,21.6827407 26.1875859,23.9940248 L26.1875859,23.9940248 C26.0425607,21.6827407 25.1808729,19.6886 23.6025225,18.0116027 Z" id="Combined-Shape" fill="#DC3737"></path>
                <g id="Group-12" transform="translate(25.000000, 14.000000)">
                    <circle id="Oval" fill="#FFFFFF" cx="35" cy="35" r="35"></circle>
                    <path d="M35,-0.5 C15.3938914,-0.5 -0.5,15.3938914 -0.5,35 C-0.5,54.6061086 15.3938914,70.5 35,70.5 C54.6061086,70.5 70.5,54.6061086 70.5,35 C70.5,15.3938914 54.6061086,-0.5 35,-0.5 Z M35,0.5 C54.0538239,0.5 69.5,15.9461761 69.5,35 C69.5,54.0538239 54.0538239,69.5 35,69.5 C15.9461761,69.5 0.5,54.0538239 0.5,35 C0.5,15.9461761 15.9461761,0.5 35,0.5 Z" id="Oval" fill="#000000" fill-rule="nonzero"></path>
                    <path d="M35,7.5 C50.0359523,7.5 62.253469,19.5671572 62.4963158,34.5452372 L62.5,35 L61.5,35 C61.5,20.5108096 49.8716485,8.73756619 35.438226,8.50355024 L35,8.5 L35,7.5 Z" id="Oval" fill="#000000" fill-rule="nonzero"></path>
                    <path d="M41.5746038,14.5843991 C48.8174047,16.8748454 54.3920791,22.5674129 56.2926254,29.6308492 L56.3926357,30.0174748 L55.4221131,30.2584851 C53.7399334,23.484527 48.5150648,17.9702654 41.6558223,15.6627432 L41.2730839,15.537859 L41.5746038,14.5843991 Z" id="Oval" fill="#000000" fill-rule="nonzero"></path>
                    <path d="M28.7932207,29.3869586 C28.286557,30.1652776 28.2945178,30.8657369 28.841318,31.6441782 C28.8574708,31.6744033 28.9768158,31.9066375 29.025149,31.9987821 C29.1313748,32.2012959 29.2424237,32.4050929 29.3691403,32.6272049 C29.7208431,33.2436783 30.1328752,33.8947993 30.6217111,34.5847209 C31.9798954,36.5016028 33.6955731,38.3912158 35.8246485,40.1595864 C36.6772653,40.8677541 37.5833582,41.5444654 38.5447748,42.1856012 C39.2294056,42.346478 39.6925634,42.2856262 40.0060512,41.9683061 C40.38844,41.5812426 41.0741687,41.0244086 42.0735522,40.286252 L42.1651856,40.2325893 C43.4965824,39.6326005 44.9602523,39.9229734 46.504586,41.0458278 C47.9607377,42.1045669 49.0606268,43.1932658 49.8172747,44.3415659 C50.5488162,45.6072359 50.4044928,47.0286792 49.4315967,48.5341315 L49.3679194,48.6135687 C48.368507,49.6284786 47.3207835,50.576877 46.2248046,51.4586848 L46.0581417,51.5470958 C44.6122745,51.9910821 43.0393774,51.9300664 41.3514578,51.3731338 C36.717628,49.8441923 31.7988219,46.7371284 27.0234731,41.0085941 C21.0349856,33.8247719 18.390929,27.0248167 19.9307272,22.4368467 L19.9720999,22.3135729 L20.0682869,22.2260732 C20.4638661,21.8662215 21.7037397,20.8038229 23.7991731,19.0289453 L23.8929129,18.9662179 C25.0987111,18.3435169 26.3011852,18.3435169 27.4416055,18.9726808 C28.5482525,19.5832122 29.6921897,21.1348781 30.9549889,23.7002796 C31.5600707,25.4710203 31.3179705,26.9666175 30.1697337,28.1402973 C29.5884311,28.6193374 29.129125,29.0356555 28.7932207,29.3869586 Z" id="Path-71" stroke="#000000" fill="#DC3737"></path>
                </g>
            </g>
        </g>
    </g>
</svg>