<?xml version="1.0" encoding="UTF-8"?>
<svg width="104px" height="106px" viewBox="0 0 104 106" version="1.1" xmlns="http://www.w3.org/2000/svg" xmlns:xlink="http://www.w3.org/1999/xlink">
    <!-- Generator: Sketch 61.2 (89653) - https://sketch.com -->
    <title>Group 22</title>
    <desc>Created with Sketch.</desc>
    <defs>
        <linearGradient x1="50%" y1="0%" x2="50%" y2="100%" id="linearGradient-1">
            <stop stop-color="#EB4C4C" offset="0%"></stop>
            <stop stop-color="#FBDBDB" offset="100%"></stop>
        </linearGradient>
        <linearGradient x1="34.8574109%" y1="0%" x2="80.3460545%" y2="126.781289%" id="linearGradient-2">
            <stop stop-color="#EB4C4C" offset="0%"></stop>
            <stop stop-color="#FFFFFF" offset="100%"></stop>
            <stop stop-color="#FFFFFF" offset="100%"></stop>
        </linearGradient>
    </defs>
    <g id="final-web" stroke="none" stroke-width="1" fill="none" fill-rule="evenodd">
        <g id="01.main-page-final-new-copy" transform="translate(-972.000000, -105.000000)">
            <g id="Group-4" transform="translate(972.000000, 105.000000)">
                <g id="Group-22" transform="translate(0.500000, 0.500000)">
                    <path d="M103.5,10.5 L103.5,105.5 L8.5,105.5 L8.5,99 L11.5,99 L11.5,102.5 L100.5,102.5 L100.5,13.5 L98,13.5 L98,10.5 L103.5,10.5 Z" id="Combined-Shape" fill="url(#linearGradient-1)" fill-rule="nonzero"></path>
                    <rect id="Rectangle" fill="url(#linearGradient-2)" x="0" y="0" width="94" height="94"></rect>
                    <path d="M43.3359375,46.8691406 C44.7851562,46.8691406 46.0600586,46.6333008 47.1606445,46.1616211 C48.2612305,45.6899414 49.1533203,45.0576172 49.8369141,44.2646484 C50.5205078,43.4716797 51.0742188,42.4873047 51.4980469,41.3115234 C51.921875,40.1357422 52.2158203,38.9121094 52.3798828,37.640625 C52.5439453,36.3691406 52.6259766,34.9472656 52.6259766,33.375 C52.6259766,32.1035156 52.5473633,30.9482422 52.3901367,29.9091797 C52.2329102,28.8701172 51.9663086,27.8857422 51.590332,26.9560547 C51.2143555,26.0263672 50.7324219,25.2470703 50.1445312,24.6181641 C49.5566406,23.9892578 48.8081055,23.4936523 47.8989258,23.1313477 C46.9897461,22.769043 45.9404297,22.5878906 44.7509766,22.5878906 C42.7275391,22.5878906 40.9775391,23.0253906 39.5009766,23.9003906 L39.5009766,23.9003906 L39.8291016,15 L51.3134766,15 L51.3134766,9.75 L35.0712891,9.75 L35.0712891,29.5605469 L39.5419922,29.5605469 C39.8564453,28.7402344 40.3554688,28.0292969 41.0390625,27.4277344 C41.7226562,26.8261719 42.5292969,26.5253906 43.4589844,26.5253906 C43.9648438,26.5253906 44.4194336,26.5834961 44.8227539,26.699707 C45.2260742,26.815918 45.5644531,26.9697266 45.8378906,27.1611328 C46.1113281,27.3525391 46.34375,27.6123047 46.5351562,27.9404297 C46.7265625,28.2685547 46.8769531,28.5966797 46.9863281,28.9248047 C47.0957031,29.2529297 47.1811523,29.659668 47.2426758,30.1450195 C47.3041992,30.6303711 47.3417969,31.081543 47.3554688,31.4985352 C47.3691406,31.9155273 47.3759766,32.4179688 47.3759766,33.0058594 L47.3751395,35.3418666 C47.3717913,35.6624581 47.3583984,36.0834961 47.3349609,36.6049805 C47.3076172,37.2133789 47.2700195,37.6850586 47.222168,38.0200195 C47.1743164,38.3549805 47.1025391,38.7685547 47.0068359,39.2607422 C46.9111328,39.7529297 46.7915039,40.1391602 46.6479492,40.4194336 C46.5043945,40.699707 46.3232422,41.0039062 46.1044922,41.3320312 C45.8857422,41.6601562 45.6362305,41.909668 45.355957,42.0805664 C45.0756836,42.2514648 44.7407227,42.3950195 44.3510742,42.5112305 C43.9614258,42.6274414 43.5273438,42.6855469 43.0488281,42.6855469 C42.4472656,42.6855469 41.9277344,42.5761719 41.4902344,42.3574219 C41.0527344,42.1386719 40.7075195,41.8618164 40.4545898,41.5268555 C40.2016602,41.1918945 40.003418,40.7543945 39.8598633,40.2143555 C39.7163086,39.6743164 39.6206055,39.1479492 39.5727539,38.6352539 C39.5249023,38.1225586 39.5009766,37.5175781 39.5009766,36.8203125 L39.5009766,36.8203125 L39.5009766,36 L34.2509766,36 C34.2509766,39.5683594 34.9482422,42.2719727 36.3427734,44.1108398 C37.7373047,45.949707 40.0683594,46.8691406 43.3359375,46.8691406 Z M65.2763672,46.5 L68.5810547,28.7109375 L66.0146484,28.7109375 L62.6982422,46.5 L65.2763672,46.5 Z M59.1005859,40.1601562 C59.8427734,40.1601562 60.4912109,40.0117188 61.0458984,39.7148438 C61.6083984,39.4179688 62.0576172,39.0039062 62.3935547,38.4726562 C62.7294922,37.9414062 62.9814453,37.3339844 63.1494141,36.6503906 C63.3173828,35.9667969 63.4013672,35.21875 63.4013672,34.40625 C63.4013672,33.75 63.3525391,33.1425781 63.2548828,32.5839844 C63.1572266,32.0253906 62.9990234,31.5078125 62.7802734,31.03125 C62.5615234,30.5546875 62.2880859,30.1484375 61.9599609,29.8125 C61.6318359,29.4765625 61.2255859,29.2128906 60.7412109,29.0214844 C60.2568359,28.8300781 59.7099609,28.734375 59.1005859,28.734375 C58.3427734,28.734375 57.6826172,28.8769531 57.1201172,29.1621094 C56.5576172,29.4472656 56.1103516,29.8496094 55.7783203,30.3691406 C55.4462891,30.8886719 55.2021484,31.484375 55.0458984,32.15625 C54.8896484,32.828125 54.8115234,33.578125 54.8115234,34.40625 C54.8115234,35.21875 54.8935547,35.9648438 55.0576172,36.6445312 C55.2216797,37.3242188 55.4716797,37.9296875 55.8076172,38.4609375 C56.1435547,38.9921875 56.5908203,39.4082031 57.1494141,39.7089844 C57.7080078,40.0097656 58.3583984,40.1601562 59.1005859,40.1601562 Z M59.1005859,37.8867188 C58.7802734,37.8867188 58.5107422,37.7753906 58.2919922,37.5527344 C58.0732422,37.3300781 57.9130859,37.0292969 57.8115234,36.6503906 C57.7099609,36.2714844 57.6396484,35.9042969 57.6005859,35.5488281 C57.5615234,35.1933594 57.5419922,34.8125 57.5419922,34.40625 C57.5419922,32.1484375 58.0615234,31.0195312 59.1005859,31.0195312 C60.1474609,31.0195312 60.6708984,32.1484375 60.6708984,34.40625 C60.6708984,36.7265625 60.1474609,37.8867188 59.1005859,37.8867188 Z M72.1083984,46.5 C72.8505859,46.5 73.5029297,46.3515625 74.0654297,46.0546875 C74.6279297,45.7578125 75.0771484,45.3417969 75.4130859,44.8066406 C75.7490234,44.2714844 75.9990234,43.6640625 76.1630859,42.984375 C76.3271484,42.3046875 76.4091797,41.5546875 76.4091797,40.734375 C76.4091797,39.90625 76.3291016,39.1582031 76.1689453,38.4902344 C76.0087891,37.8222656 75.7626953,37.2285156 75.4306641,36.7089844 C75.0986328,36.1894531 74.6513672,35.7871094 74.0888672,35.5019531 C73.5263672,35.2167969 72.8662109,35.0742188 72.1083984,35.0742188 C71.3505859,35.0742188 70.6923828,35.2167969 70.1337891,35.5019531 C69.5751953,35.7871094 69.1298828,36.1894531 68.7978516,36.7089844 C68.4658203,37.2285156 68.2197266,37.8222656 68.0595703,38.4902344 C67.8994141,39.1582031 67.8193359,39.90625 67.8193359,40.734375 C67.8193359,41.546875 67.9013672,42.2929688 68.0654297,42.9726562 C68.2294922,43.6523438 68.4794922,44.2597656 68.8154297,44.7949219 C69.1513672,45.3300781 69.5986328,45.7480469 70.1572266,46.0488281 C70.7158203,46.3496094 71.3662109,46.5 72.1083984,46.5 Z M72.1083984,44.2148438 C71.7880859,44.2148438 71.5185547,44.1035156 71.2998047,43.8808594 C71.0810547,43.6582031 70.9208984,43.3554688 70.8193359,42.9726562 C70.7177734,42.5898438 70.6474609,42.2226562 70.6083984,41.8710938 C70.5693359,41.5195312 70.5498047,41.140625 70.5498047,40.734375 C70.5498047,38.484375 71.0693359,37.359375 72.1083984,37.359375 C73.1552734,37.359375 73.6787109,38.484375 73.6787109,40.734375 C73.6787109,43.0546875 73.1552734,44.2148438 72.1083984,44.2148438 Z M39.1289062,81.7109375 C40.1757812,81.7109375 41.0761719,81.5488281 41.8300781,81.2246094 C42.5839844,80.9003906 43.1835938,80.4277344 43.6289062,79.8066406 C44.0742188,79.1855469 44.4003906,78.4589844 44.6074219,77.6269531 C44.8144531,76.7949219 44.9179688,75.8359375 44.9179688,74.75 L44.9179688,74.75 L44.9179688,67.1328125 C44.9179688,64.9140625 44.4648438,63.21875 43.5585938,62.046875 C42.6523438,60.875 41.1757812,60.2890625 39.1289062,60.2890625 C38.0742188,60.2890625 37.1699219,60.4414062 36.4160156,60.7460938 C35.6621094,61.0507812 35.0625,61.5058594 34.6171875,62.1113281 C34.171875,62.7167969 33.8476562,63.4296875 33.6445312,64.25 C33.4414062,65.0703125 33.3398438,66.03125 33.3398438,67.1328125 L33.3398438,67.1328125 L33.3398438,74.75 C33.3398438,75.8515625 33.4414062,76.8183594 33.6445312,77.6503906 C33.8476562,78.4824219 34.171875,79.2070312 34.6171875,79.8242188 C35.0625,80.4414062 35.6621094,80.9101562 36.4160156,81.2304688 C37.1699219,81.5507812 38.0742188,81.7109375 39.1289062,81.7109375 Z M39.1289062,79.25 C38.0742188,79.25 37.34375,78.9335938 36.9375,78.3007812 C36.5390625,77.6679688 36.3398438,76.734375 36.3398438,75.5 L36.3398438,75.5 L36.3398438,66.3828125 C36.3398438,65.1640625 36.5390625,64.2539062 36.9375,63.6523438 C37.3359375,63.0507812 38.0664062,62.75 39.1289062,62.75 C40.1914062,62.75 40.921875,63.0507812 41.3203125,63.6523438 C41.71875,64.2539062 41.9179688,65.1640625 41.9179688,66.3828125 L41.9179688,66.3828125 L41.9179688,75.5 C41.9179688,76.734375 41.7167969,77.6679688 41.3144531,78.3007812 C40.9121094,78.9335938 40.1835938,79.25 39.1289062,79.25 Z M50.5429688,81.5 L50.5429688,71.75 L54.2929688,71.75 L54.2929688,69.5 L50.5429688,69.5 L50.5429688,62.75 L55.7929688,62.75 L55.7929688,60.5 L47.5429688,60.5 L47.5429688,81.5 L50.5429688,81.5 Z M60.1640625,81.5 L60.1640625,71.75 L63.9140625,71.75 L63.9140625,69.5 L60.1640625,69.5 L60.1640625,62.75 L65.4140625,62.75 L65.4140625,60.5 L57.1640625,60.5 L57.1640625,81.5 L60.1640625,81.5 Z" id="5%OFF" fill="#000000" fill-rule="nonzero"></path>
                    <polygon id="Path-125" fill="#FFFFFF" fill-rule="nonzero" points="88.5 51.625 88.5 52.625 8.5 52.625 8.5 51.625"></polygon>
                </g>
            </g>
        </g>
    </g>
</svg>