<?xml version="1.0" encoding="UTF-8"?>
<svg width="22px" height="22px" viewBox="0 0 22 22" version="1.1" xmlns="http://www.w3.org/2000/svg" xmlns:xlink="http://www.w3.org/1999/xlink">
    <!-- Generator: Sketch 61.2 (89653) - https://sketch.com -->
    <title>Group 19</title>
    <desc>Created with Sketch.</desc>
    <g id="final-web" stroke="none" stroke-width="1" fill="none" fill-rule="evenodd">
        <g id="01.main-page-final-new-copy" transform="translate(-839.000000, -491.000000)">
            <g id="Group-21-Copy-8" transform="translate(486.000000, 470.000000)">
                <g id="Group-19" transform="translate(353.000000, 20.000000)">
                    <circle id="Oval" fill="#DC3737" cx="11" cy="12" r="11"></circle>
                    <path d="M11.358,7.614 C11.73,7.614 12.036,7.506 12.276,7.29 C12.516,7.074 12.636,6.792 12.636,6.444 C12.636,6.096 12.516,5.811 12.276,5.589 C12.036,5.367 11.73,5.256 11.358,5.256 C10.986,5.256 10.68,5.367 10.44,5.589 C10.2,5.811 10.08,6.096 10.08,6.444 C10.08,6.792 10.2,7.074 10.44,7.29 C10.68,7.506 10.986,7.614 11.358,7.614 Z M12.384,18 L12.384,9.162 L10.314,9.162 L10.314,18 L12.384,18 Z" id="i" fill="#FFFFFF" fill-rule="nonzero"></path>
                </g>
            </g>
        </g>
    </g>
</svg>