<?xml version="1.0" encoding="UTF-8"?>
<svg width="27px" height="32px" viewBox="0 0 27 32" version="1.1" xmlns="http://www.w3.org/2000/svg" xmlns:xlink="http://www.w3.org/1999/xlink">
    <!-- Generator: Sketch 61.2 (89653) - https://sketch.com -->
    <title>Path 87</title>
    <desc>Created with Sketch.</desc>
    <g id="final-web" stroke="none" stroke-width="1" fill="none" fill-rule="evenodd">
        <g id="03.select-ad-type-1" transform="translate(-1052.000000, -29.000000)" fill="#DC3737">
            <path d="M1073.99012,31.0259999 C1070.75489,34.7189068 1069.50085,37.2892709 1070.22798,38.7370921 C1071.41699,41.1045841 1071.17027,42.8123666 1070.22798,43.9933623 C1069.59978,44.7806928 1067.54055,46.7207628 1064.05029,49.8135724 C1062.86981,50.570909 1061.67466,50.570909 1060.46485,49.8135724 C1058.65013,48.6775674 1056.11568,49.4241671 1054.98562,50.4201128 C1054.37692,50.9565646 1053.39277,51.7778175 1052.03316,52.8838714 L1052.03315,52.8838583 C1051.37556,53.4188101 1051.12664,54.3102067 1051.41194,55.1084542 C1052.67607,58.6453903 1054.99649,59.7713468 1058.37322,58.4863235 C1064.05029,56.3259008 1078.74075,44.6569724 1079.98142,35.5163023 C1080.16886,33.3238937 1078.93794,31.6545815 1076.28866,30.5083659 L1076.28867,30.5083435 C1075.49138,30.1633916 1074.56257,30.3725673 1073.99012,31.0259999 Z" id="Path-87" transform="translate(1065.500000, 44.500000) scale(-1, 1) rotate(-8.000000) translate(-1065.500000, -44.500000) "></path>
        </g>
    </g>
</svg>